<svg width="22" height="26" viewBox="0 0 22 26" fill="none" xmlns="http://www.w3.org/2000/svg">
<path fill-rule="evenodd" clip-rule="evenodd" d="M8.49129 10.907C7.79387 10.907 7.24329 11.557 7.24329 12.35C7.24329 13.143 7.80611 13.793 8.49129 13.793C9.1887 13.793 9.73929 13.143 9.73929 12.35C9.75152 11.557 9.1887 10.907 8.49129 10.907ZM12.9572 10.907C12.2598 10.907 11.7092 11.557 11.7092 12.35C11.7092 13.143 12.272 13.793 12.9572 13.793C13.6546 13.793 14.2052 13.143 14.2052 12.35C14.2052 11.557 13.6546 10.907 12.9572 10.907Z" fill="white"/>
<path fill-rule="evenodd" clip-rule="evenodd" d="M18.9035 0H2.50824C1.12565 0 0 1.196 0 2.678V20.254C0 21.736 1.12565 22.932 2.50824 22.932H16.3831L15.7346 20.527L17.3007 22.074L18.7812 23.53L21.4118 26V2.678C21.4118 1.196 20.2861 0 18.9035 0ZM14.1807 16.978C14.1807 16.978 13.7402 16.419 13.3732 15.925C14.976 15.444 15.5878 14.378 15.5878 14.378C15.0861 14.729 14.6089 14.976 14.1807 15.145C13.5689 15.418 12.9816 15.6 12.4066 15.704C11.232 15.938 10.1553 15.873 9.23765 15.691C8.54024 15.548 7.94071 15.34 7.43906 15.132C7.15765 15.015 6.85177 14.872 6.54588 14.69C6.50918 14.664 6.47247 14.651 6.43577 14.625C6.41129 14.612 6.39906 14.599 6.38682 14.586C6.16659 14.456 6.04424 14.365 6.04424 14.365C6.04424 14.365 6.63153 15.405 8.18541 15.899C7.81835 16.393 7.36565 16.978 7.36565 16.978C4.66165 16.887 3.63388 15.002 3.63388 15.002C3.63388 10.816 5.39577 7.423 5.39577 7.423C7.15765 6.019 8.83388 6.058 8.83388 6.058L8.95624 6.214C6.75388 6.89 5.73835 7.917 5.73835 7.917C5.73835 7.917 6.00753 7.761 6.46024 7.54C7.76941 6.929 8.80941 6.76 9.23765 6.721C9.31106 6.708 9.37224 6.695 9.44565 6.695C10.192 6.591 11.0362 6.565 11.9172 6.669C13.0795 6.812 14.3275 7.176 15.6 7.917C15.6 7.917 14.6334 6.942 12.5534 6.266L12.7247 6.058C12.7247 6.058 14.4009 6.019 16.1628 7.423C16.1628 7.423 17.9247 10.816 17.9247 15.002C17.9247 15.002 16.8847 16.887 14.1807 16.978Z" fill="white"/>
</svg>
