<svg width="116" height="95" viewBox="0 0 116 95" fill="none" xmlns="http://www.w3.org/2000/svg">
<path d="M94 84.5C93.6 87.7 97.8334 92.5 100 94.5C82.6667 95 47.8001 95.3 47.0001 92.5C46.0001 89 50.0001 82 51.5001 79.5C53.0001 77 42 62.5 47.0001 58.5C50.7501 55.5 57.5001 65.5 59.5001 66C61.5001 66.5 64.0001 61 67.5001 61C71.0001 61 70.0001 64 72.0001 65C74.0001 66 75.0001 63 78.0001 63C81.0001 63 81.0001 67 85.5001 69.5C90.0001 72 92.0001 68.5 94.5001 70C97.0001 71.5 98.0001 74 97.5001 76.5C97.0001 79 94.5 80.5 94 84.5Z" fill="#AB92F6"/>
<circle cx="68" cy="68" r="1" fill="#29323C"/>
<circle cx="77" cy="70" r="1" fill="#29323C"/>
<path d="M64 71C66.3333 72.8333 72.7 76.1 79.5 74.5" stroke="#2C3034" stroke-linecap="round"/>
<rect x="18.2395" width="102" height="37" rx="2" transform="rotate(17.398 18.2395 0)" fill="#343F4A"/>
<path d="M30.6758 20.536C30.4174 20.455 30.271 20.2429 30.2367 19.8995C30.2046 19.6056 30.149 19.4152 30.0698 19.3283C29.9989 19.2574 29.7958 19.1693 29.4607 19.0643C28.8751 18.8809 28.0845 19.1254 27.0889 19.7979C25.7427 20.6976 24.9006 21.6865 24.5628 22.7647C24.3995 23.2856 24.4267 23.7864 24.6442 24.267C24.8659 24.7622 25.2191 25.0857 25.7037 25.2375C26.1196 25.3679 26.5711 25.3918 27.0581 25.3094C27.3303 25.2616 27.7644 25.136 28.3603 24.9325C28.6436 24.835 28.8438 24.8046 28.9609 24.8413C29.1346 24.8957 29.2591 25.0079 29.3344 25.1778C29.411 25.3438 29.424 25.5075 29.3734 25.669C29.3165 25.8507 29.1898 25.9862 28.9933 26.0754C27.6311 26.6863 26.4049 26.8209 25.3146 26.4793C24.4787 26.2174 23.8726 25.6749 23.4964 24.8519C23.1339 24.0554 23.0856 23.2331 23.3513 22.3851C23.7803 21.0162 24.7934 19.7926 26.3907 18.7143C27.7235 17.8149 28.8766 17.5176 29.8498 17.8226C30.0476 17.8846 30.2222 17.9504 30.3733 18.0199C30.5257 18.0854 30.6562 18.1573 30.7647 18.2357C30.9706 18.074 31.1866 18.0286 31.4127 18.0995C31.6913 18.1868 31.8094 18.4255 31.767 18.8158C31.7291 19.1631 31.6355 19.5751 31.4862 20.0516C31.4343 20.2171 31.3443 20.3486 31.2163 20.4459C31.0579 20.5692 30.8777 20.5993 30.6758 20.536ZM32.3352 28.9119C31.6568 28.6994 31.1517 28.2662 30.82 27.6123C30.4494 26.8842 30.3974 26.0453 30.664 25.0956C30.9257 24.1753 31.4077 23.4439 32.1099 22.9011C32.9321 22.2585 33.848 22.0954 34.8576 22.4117C35.6652 22.6648 36.1612 23.226 36.3456 24.0953C36.4894 24.7967 36.4237 25.5655 36.1484 26.4016C35.8554 27.2943 35.3814 27.9862 34.7264 28.4772C33.9843 29.034 33.1872 29.1789 32.3352 28.9119ZM34.3935 23.6167C33.8012 23.4267 33.2502 23.5644 32.7407 24.0301C32.3352 24.4041 32.0408 24.8839 31.8573 25.4695C31.6738 26.055 31.6903 26.5613 31.9069 26.9883C32.0886 27.3424 32.3592 27.5758 32.7186 27.6884C33.1385 27.82 33.548 27.7798 33.9471 27.5678C34.3966 27.3361 34.7219 26.9347 34.9231 26.3636C35.4693 24.8185 35.2928 23.9029 34.3935 23.6167ZM44.2406 32.8021C43.9094 32.6983 43.7707 32.4619 43.8242 32.0929C43.8907 31.6259 44.0141 30.9772 44.1945 30.1468L44.577 28.2045C44.6239 27.9132 44.6406 27.6191 44.6272 27.3223C44.6038 26.9158 44.5114 26.6873 44.3498 26.6367C44.2004 26.5898 43.8819 26.6297 43.3944 26.7563C42.9333 26.8691 42.6201 26.9771 42.4546 27.0805C42.3316 27.4588 42.2228 27.8416 42.1281 28.2288L41.803 29.903C41.6798 30.5651 41.5531 31.1041 41.4227 31.52C41.3671 31.6977 41.265 31.8253 41.1165 31.903C40.9708 31.9859 40.8111 32.0002 40.6374 31.9458C40.4638 31.8914 40.3388 31.7879 40.2624 31.6354C40.1888 31.4881 40.1798 31.3257 40.2355 31.148C40.3886 30.6594 40.564 29.9227 40.7617 28.9381C40.9646 27.9507 41.1427 27.2127 41.2958 26.7241C41.4299 26.296 41.4737 25.9439 41.4272 25.6677C41.1041 25.7083 40.7516 25.8285 40.3697 26.0281L39.4044 26.6037C39.3094 26.6804 39.1666 26.7753 38.9759 26.8885C38.9 27.1308 38.7658 27.4812 38.5734 27.9398C38.3809 28.3983 38.2492 28.7407 38.1784 28.9668C38.1404 29.0879 38.1054 29.2632 38.0735 29.4927C38.0455 29.7234 38.0164 29.8872 37.986 29.9841C37.9341 30.1497 37.8279 30.2694 37.6672 30.3432C37.5107 30.4184 37.3496 30.43 37.184 30.3781C36.7277 30.2351 36.6622 29.6447 36.9874 28.6069C37.0633 28.3646 37.1987 28.0102 37.3937 27.5435C37.5887 27.0769 37.7242 26.7224 37.8001 26.4802C37.8672 26.2661 37.9476 25.9388 38.0413 25.4981C38.1391 25.0586 38.2221 24.7299 38.2905 24.5118C38.5777 23.5952 38.9273 23.2014 39.3392 23.3304C39.4966 23.3798 39.6185 23.4933 39.7047 23.6711C39.7949 23.8502 39.8147 24.0205 39.7641 24.182C39.7401 24.2587 39.6927 24.3747 39.6219 24.5299C39.5511 24.6851 39.5024 24.8051 39.4758 24.8899L39.2886 25.5297C39.634 25.1634 40.065 24.8705 40.5817 24.651C41.0996 24.4275 41.502 24.3607 41.7887 24.4505C42.4227 24.6492 42.7601 25.1008 42.8009 25.8054C43.1154 25.5802 43.4489 25.443 43.8013 25.3938C44.155 25.3406 44.5298 25.376 44.9255 25.5C45.5999 25.7113 45.9464 26.2189 45.9649 27.023C45.9678 27.1836 45.8728 27.7769 45.6799 28.8029C45.5754 29.5329 45.3582 30.7354 45.0285 32.4104C44.99 32.5757 44.8925 32.6959 44.7359 32.771C44.5793 32.8461 44.4142 32.8565 44.2406 32.8021ZM49.9084 25.6045C49.7145 25.5438 49.5684 25.4226 49.4701 25.241C49.3718 25.0594 49.353 24.8717 49.4138 24.6779C49.4745 24.4841 49.597 24.3407 49.7814 24.2476C49.9658 24.1546 50.1549 24.1385 50.3487 24.1992C50.5425 24.26 50.6866 24.3805 50.7808 24.5608C50.8792 24.7424 50.898 24.9301 50.8372 25.1239C50.7765 25.3178 50.6539 25.4612 50.4696 25.5542C50.2893 25.6485 50.1022 25.6652 49.9084 25.6045ZM48.6398 30.6084C48.5638 30.8507 48.456 31.216 48.3163 31.7044C48.1819 32.19 48.0767 32.554 48.0008 32.7963C47.9451 32.9739 47.845 33.1022 47.7006 33.1811C47.5561 33.26 47.395 33.2716 47.2174 33.216C47.0437 33.1616 46.9181 33.0601 46.8404 32.9116C46.7668 32.7644 46.7579 32.6019 46.8135 32.4242C46.8895 32.182 46.9946 31.818 47.1291 31.3324C47.2688 30.844 47.3766 30.4787 47.4525 30.2364C47.5715 29.8568 47.7397 29.3907 47.9572 28.838C48.176 28.2813 48.3449 27.8131 48.4638 27.4335C48.5208 27.2518 48.6215 27.1215 48.7659 27.0426C48.9144 26.9649 49.0755 26.9533 49.2491 27.0077C49.4228 27.0621 49.5464 27.163 49.62 27.3102C49.6976 27.4587 49.708 27.6238 49.6511 27.8055C49.5321 28.1851 49.3632 28.6533 49.1445 29.21C48.9269 29.7627 48.7587 30.2288 48.6398 30.6084ZM54.3366 35.8858C53.9893 35.7769 53.8529 35.5258 53.9274 35.1323L54.1735 33.7526C54.265 33.2624 54.3753 32.8114 54.5043 32.3995C54.5398 32.2864 54.6059 32.0965 54.7028 31.8297C54.8038 31.5642 54.8719 31.375 54.9074 31.2619C55.1807 30.3896 55.1558 29.9029 54.8328 29.8017C54.3805 29.66 53.8642 29.7931 53.2841 30.2011C52.7594 30.5733 52.2751 31.1001 51.831 31.7813C51.7736 31.9363 51.6934 32.1285 51.5905 32.3579C51.503 32.5522 51.4295 32.7442 51.3701 32.934C51.3321 33.0552 51.2873 33.2407 51.2356 33.4906C51.1839 33.7404 51.1391 33.926 51.1011 34.0471C51.0442 34.2288 50.9415 34.3585 50.793 34.4361C50.6485 34.515 50.4894 34.5273 50.3158 34.4729C50.1381 34.4172 50.0125 34.3158 49.9389 34.1685C49.8653 34.0213 49.8569 33.8568 49.9139 33.6751C49.9518 33.554 49.9947 33.3678 50.0423 33.1167C50.094 32.8668 50.1388 32.6813 50.1768 32.5601C50.3071 32.1442 50.5157 31.5776 50.8025 30.8604C51.0946 30.1404 51.3059 29.5724 51.4362 29.1565C51.4767 29.0272 51.5287 28.8329 51.5923 28.5734C51.6599 28.3152 51.7139 28.1215 51.7544 27.9923C51.8088 27.8187 51.9097 27.695 52.0569 27.6214C52.2094 27.5451 52.3705 27.5335 52.5401 27.5866C52.9116 27.703 53.0333 28.0294 52.9051 28.5657L52.7012 29.2801C53.6631 28.5882 54.5014 28.3541 55.2161 28.5781C55.8623 28.7806 56.2233 29.2063 56.2993 29.8554C56.354 30.2894 56.273 30.8805 56.0563 31.6286L55.8646 32.2403L55.6821 32.8018C55.5771 33.1369 55.4834 33.5843 55.4012 34.1439C55.3243 34.7008 55.234 35.1448 55.1302 35.4759C55.0745 35.6536 54.971 35.7786 54.8198 35.8509C54.6713 35.9286 54.5102 35.9402 54.3366 35.8858ZM62.1219 34.986L61.3449 36.9775C61.0676 37.7776 60.7779 38.4119 60.4759 38.8805C60.0892 39.4777 59.6472 39.8692 59.15 40.0548C58.5478 40.2785 57.7883 40.2468 56.8717 39.9595C56.3346 39.7913 55.8957 39.6138 55.5551 39.4273C55.0779 39.1669 54.8893 38.8772 54.9892 38.5582C55.1018 38.1988 55.3338 38.0741 55.6851 38.1842C55.8305 38.2297 56.062 38.34 56.3797 38.5149C56.6962 38.6939 57.0616 38.8439 57.476 38.9649C58.2551 39.1957 58.9079 38.9878 59.4342 38.3412C59.7824 37.9093 60.1226 37.1844 60.4549 36.1665C60.1103 36.502 59.7549 36.7232 59.3888 36.8303C59.0267 36.9385 58.6518 36.9319 58.2642 36.8105C57.5333 36.5814 57.0155 36.1464 56.7107 35.5055C56.4113 34.8618 56.3863 34.1422 56.6355 33.3467C56.9772 32.2563 57.5653 31.4761 58.4 31.0059C59.2612 30.5219 60.2491 30.4545 61.3637 30.8037C61.7392 30.9214 62.039 31.0686 62.263 31.2452C62.4871 31.4218 62.6354 31.6279 62.7079 31.8635C63.1362 32.011 63.2769 32.319 63.1301 32.7874C63.0403 33.0741 62.8777 33.4445 62.6423 33.8984C62.3748 34.4266 62.2014 34.7891 62.1219 34.986ZM60.9994 31.7539C60.2321 31.5135 59.5557 31.592 58.9699 31.9894C58.4451 32.3482 58.0675 32.8951 57.8372 33.6301C57.6537 34.2156 57.6269 34.6906 57.7566 35.0549C57.8863 35.4193 58.1733 35.6711 58.6175 35.8103C59.0253 35.9381 59.4932 35.8319 60.0211 35.4918C60.5012 35.1766 60.8307 34.8186 61.0095 34.4179C61.2309 34.0083 61.5363 33.3523 61.9255 32.4499C61.8032 32.2741 61.6647 32.1287 61.51 32.0137C61.3554 31.8987 61.1852 31.8121 60.9994 31.7539ZM67.0584 37.7434C67.1075 37.5726 67.2071 37.453 67.3571 37.3847C67.5124 37.3136 67.6769 37.3053 67.8505 37.3597C68.0484 37.4217 68.1866 37.5892 68.2652 37.8621C68.3749 38.2336 68.4935 38.4991 68.6209 38.6587C68.8933 38.9924 69.3565 39.2618 70.0107 39.4668C70.6366 39.6629 71.2605 39.7098 71.8824 39.6075C72.6777 39.4754 73.1721 39.1004 73.3657 38.4825C73.5252 37.9737 73.3623 37.4814 72.8773 37.0057C72.4684 36.5982 71.9077 36.2717 71.1952 36.0263C70.5648 35.8022 70.0653 35.4927 69.6968 35.0978C69.2258 34.591 69.0859 34.0328 69.277 33.423C69.5022 32.7042 70.1157 32.1758 71.1174 31.8378C72.0726 31.5207 72.9662 31.4925 73.7981 31.7531C74.1898 31.8759 74.6111 32.0811 75.062 32.3687C75.6617 32.7473 75.9192 33.0719 75.8345 33.3425C75.7231 33.6978 75.4857 33.8186 75.1223 33.7047C74.9607 33.6541 74.6914 33.5231 74.3141 33.3118C73.9381 33.0964 73.6385 32.9559 73.4151 32.8904C72.7826 32.7011 72.1988 32.6889 71.6638 32.8538C71.1141 33.023 70.7696 33.3297 70.6304 33.7739C70.5254 34.1091 70.7502 34.439 71.3049 34.7635C71.5105 34.8856 71.9254 35.0688 72.5495 35.3132C73.4527 35.6716 74.0845 36.1888 74.4447 36.8649C74.7744 37.4827 74.8336 38.1287 74.6223 38.8031C74.3212 39.7642 73.6365 40.3922 72.5685 40.6873C71.6415 40.9423 70.6693 40.9104 69.6516 40.5915C68.9127 40.36 68.2806 40.0067 67.7553 39.5317C67.113 38.949 66.8807 38.353 67.0584 37.7434ZM77.3769 43.0255C76.6985 42.8129 76.1934 42.3797 75.8617 41.7259C75.4912 40.9978 75.4392 40.1588 75.7057 39.2091C75.9675 38.2889 76.4495 37.5574 77.1517 37.0147C77.9739 36.3721 78.8898 36.2089 79.8993 36.5253C80.7069 36.7783 81.2029 37.3395 81.3873 38.2089C81.5312 38.9103 81.4654 39.679 81.1901 40.5152C80.8971 41.4079 80.4231 42.0997 79.7682 42.5907C79.026 43.1475 78.229 43.2925 77.3769 43.0255ZM79.4353 37.7302C78.8429 37.5402 78.292 37.678 77.7824 38.1436C77.377 38.5177 77.0825 38.9975 76.899 39.583C76.7155 40.1685 76.7321 40.6748 76.9486 41.1019C77.1303 41.456 77.4009 41.6893 77.7603 41.8019C78.1803 41.9335 78.5898 41.8933 78.9888 41.6813C79.4383 41.4496 79.7637 41.0483 79.9648 40.4771C80.511 38.9321 80.3345 38.0164 79.4353 37.7302ZM83.9066 45.0715C83.2282 44.8589 82.7232 44.4257 82.3914 43.7719C82.0209 43.0438 81.9689 42.2049 82.2355 41.2551C82.4972 40.3349 82.9792 39.6035 83.6814 39.0607C84.5036 38.4181 85.4195 38.255 86.429 38.5713C87.2367 38.8244 87.7327 39.3856 87.917 40.2549C88.0609 40.9563 87.9952 41.7251 87.7199 42.5612C87.4268 43.4539 86.9529 44.1457 86.2979 44.6368C85.5558 45.1936 84.7587 45.3385 83.9066 45.0715ZM85.965 39.7763C85.3726 39.5862 84.8217 39.724 84.3121 40.1896C83.9067 40.5637 83.6122 41.0435 83.4287 41.629C83.2453 42.2146 83.2618 42.7209 83.4783 43.1479C83.6601 43.502 83.9306 43.7353 84.29 43.848C84.71 43.9796 85.1195 43.9393 85.5185 43.7273C85.9681 43.4957 86.2934 43.0943 86.4945 42.5232C87.0407 40.9781 86.8642 40.0625 85.965 39.7763ZM92.788 47.9343C92.4407 47.8255 92.3044 47.5743 92.3789 47.1808L92.6249 45.8011C92.7164 45.3109 92.8267 44.8599 92.9558 44.448C92.9912 44.3349 93.0574 44.145 93.1543 43.8782C93.2552 43.6127 93.3234 43.4235 93.3588 43.3104C93.6321 42.4382 93.6073 41.9514 93.2842 41.8502C92.8319 41.7085 92.3157 41.8416 91.7355 42.2496C91.2109 42.6218 90.7266 43.1486 90.2825 43.8298C90.2251 43.9848 90.1449 44.177 90.042 44.4064C89.9545 44.6007 89.881 44.7927 89.8215 44.9825C89.7836 45.1037 89.7387 45.2892 89.687 45.5391C89.6353 45.789 89.5905 45.9745 89.5526 46.0956C89.4956 46.2773 89.3929 46.407 89.2444 46.4847C89.0999 46.5636 88.9409 46.5758 88.7673 46.5214C88.5896 46.4657 88.4639 46.3643 88.3903 46.217C88.3167 46.0698 88.3084 45.9053 88.3653 45.7236C88.4033 45.6025 88.4461 45.4163 88.4938 45.1652C88.5454 44.9153 88.5903 44.7298 88.6282 44.6086C88.7586 44.1927 88.9671 43.6261 89.254 42.9089C89.5461 42.1889 89.7573 41.6209 89.8877 41.205C89.9281 41.0758 89.9802 40.8814 90.0437 40.6219C90.1113 40.3637 90.1654 40.17 90.2059 40.0408C90.2603 39.8672 90.3611 39.7436 90.5083 39.6699C90.6609 39.5936 90.8219 39.582 90.9915 39.6351C91.3631 39.7515 91.4847 40.0779 91.3566 40.6142L91.1527 41.3286C92.1145 40.6367 92.9528 40.4027 93.6676 40.6266C94.3137 40.8291 94.6748 41.2549 94.7507 41.904C94.8054 42.3379 94.7245 42.929 94.5078 43.6771L94.3161 44.2889L94.1335 44.8503C94.0285 45.1855 93.9349 45.6328 93.8527 46.1925C93.7757 46.7493 93.6854 47.1933 93.5816 47.5244C93.526 47.7021 93.4225 47.8271 93.2712 47.8994C93.1227 47.9771 92.9617 47.9887 92.788 47.9343ZM98.8106 39.2647L96.6981 46.0064C96.5855 46.3658 96.3495 46.4892 95.9901 46.3766C95.6307 46.264 95.5073 46.028 95.6199 45.6686C95.6718 45.503 95.7429 45.2548 95.8333 44.9239C95.929 44.5903 96.0021 44.3427 96.0528 44.1811C96.2362 43.5956 96.5148 42.7206 96.8886 41.5561C97.2677 40.3888 97.5489 39.5124 97.7324 38.9269C97.845 38.5675 98.081 38.4441 98.4404 38.5567C98.7998 38.6693 98.9232 38.9053 98.8106 39.2647ZM95.9829 48.3101C95.9374 48.4555 95.8396 48.5623 95.6896 48.6306C95.5424 48.7042 95.3961 48.7182 95.2507 48.6727C95.0892 48.6221 94.9605 48.4665 94.8648 48.2059C94.7693 47.9586 94.7475 47.7522 94.7994 47.5867C94.8449 47.4413 94.9407 47.3338 95.0867 47.2643C95.2367 47.196 95.3864 47.1852 95.5358 47.2321C95.6933 47.2814 95.8219 47.437 95.9217 47.6989C96.0131 47.9448 96.0336 48.1486 95.9829 48.3101Z" fill="white"/>
<line x1="47.6839" y1="71.5788" x2="55.1591" y2="47.7225" stroke="#343F4A" stroke-width="3" stroke-linecap="round"/>
</svg>
