<svg width="500" height="228" viewBox="0 0 500 228" fill="none" xmlns="http://www.w3.org/2000/svg">
<rect width="500" height="227.5" rx="10" fill="#36393E"/>
<rect x="86.6667" y="90.8334" width="385" height="108.333" rx="2" fill="#23272A" fill-opacity="0.5"/>
<circle cx="49.1667" cy="49.1667" r="20.8333" fill="#BA68C8"/>
<path d="M90.4313 44.3131C89.4694 44.3131 88.7126 43.9396 88.1608 43.1925C87.6139 42.4454 87.3405 41.4103 87.3405 40.087C87.3405 38.7443 87.6188 37.6993 88.1754 36.9523C88.737 36.2003 89.5085 35.8243 90.4899 35.8243C91.5202 35.8243 92.3063 36.2247 92.8483 37.0255H92.9215C92.8092 36.4152 92.7531 35.8707 92.7531 35.3922V32.7701H94.9943V44.1666H93.2804L92.8483 43.1046H92.7531C92.2453 43.9103 91.4713 44.3131 90.4313 44.3131ZM91.215 42.5333C91.7863 42.5333 92.2038 42.3673 92.4674 42.0353C92.736 41.7032 92.8825 41.1393 92.9069 40.3434V40.1017C92.9069 39.2228 92.7702 38.5929 92.4967 38.212C92.2282 37.8312 91.7887 37.6407 91.1784 37.6407C90.6803 37.6407 90.2921 37.8531 90.0138 38.278C89.7404 38.6979 89.6037 39.3107 89.6037 40.1163C89.6037 40.922 89.7428 41.5275 90.0211 41.9327C90.2995 42.3331 90.6974 42.5333 91.215 42.5333Z" fill="white"/>
<path d="M97.2355 33.8615C97.2355 33.1339 97.6408 32.7701 98.4513 32.7701C99.2619 32.7701 99.6671 33.1339 99.6671 33.8615C99.6671 34.2081 99.5646 34.4791 99.3595 34.6744C99.1593 34.8649 98.8566 34.9601 98.4513 34.9601C97.6408 34.9601 97.2355 34.5939 97.2355 33.8615ZM99.5646 44.1666H97.3307V35.9781H99.5646V44.1666Z" fill="white"/>
<path d="M105.365 42.5333C105.756 42.5333 106.225 42.4479 106.772 42.277V43.9396C106.215 44.1886 105.531 44.3131 104.721 44.3131C103.827 44.3131 103.175 44.0885 102.765 43.6393C102.36 43.1852 102.157 42.5065 102.157 41.6031V37.6554H101.088V36.7106L102.319 35.9635L102.963 34.235H104.391V35.9781H106.684V37.6554H104.391V41.6031C104.391 41.9205 104.479 42.1549 104.655 42.3063C104.836 42.4576 105.072 42.5333 105.365 42.5333Z" fill="white"/>
<path d="M111.884 42.5333C112.275 42.5333 112.743 42.4479 113.29 42.277V43.9396C112.734 44.1886 112.05 44.3131 111.239 44.3131C110.346 44.3131 109.694 44.0885 109.284 43.6393C108.879 43.1852 108.676 42.5065 108.676 41.6031V37.6554H107.607V36.7106L108.837 35.9635L109.482 34.235H110.91V35.9781H113.202V37.6554H110.91V41.6031C110.91 41.9205 110.998 42.1549 111.173 42.3063C111.354 42.4576 111.591 42.5333 111.884 42.5333Z" fill="white"/>
<path d="M116.733 40.0577C116.733 40.8683 116.864 41.4811 117.128 41.8961C117.397 42.3112 117.831 42.5187 118.432 42.5187C119.027 42.5187 119.455 42.3136 119.714 41.9034C119.977 41.4884 120.109 40.8732 120.109 40.0577C120.109 39.2472 119.977 38.6393 119.714 38.234C119.45 37.8287 119.018 37.6261 118.417 37.6261C117.821 37.6261 117.392 37.8287 117.128 38.234C116.864 38.6344 116.733 39.2423 116.733 40.0577ZM122.394 40.0577C122.394 41.3907 122.043 42.4332 121.34 43.1852C120.636 43.9371 119.657 44.3131 118.402 44.3131C117.616 44.3131 116.923 44.1422 116.322 43.8004C115.722 43.4537 115.26 42.9581 114.938 42.3136C114.616 41.6691 114.455 40.9171 114.455 40.0577C114.455 38.7198 114.804 37.6798 115.502 36.9376C116.2 36.1954 117.182 35.8243 118.446 35.8243C119.233 35.8243 119.926 35.9952 120.527 36.337C121.127 36.6788 121.589 37.1696 121.911 37.8092C122.233 38.4489 122.394 39.1984 122.394 40.0577Z" fill="white"/>
<rect x="130" y="31.6666" width="25" height="15" rx="4" fill="#7289DA"/>
<path d="M134.985 36.5511H136.665C137.454 36.5511 138.025 36.6691 138.378 36.9051C138.731 37.1411 138.907 37.5141 138.907 38.0241C138.907 38.3767 138.808 38.6683 138.61 38.8989C138.415 39.1268 138.129 39.2746 137.751 39.3424V39.3831C138.655 39.5378 139.106 40.0125 139.106 40.8073C139.106 41.339 138.926 41.754 138.565 42.0524C138.207 42.3508 137.705 42.5 137.06 42.5H134.985V36.5511ZM135.676 39.0983H136.816C137.304 39.0983 137.655 39.0224 137.869 38.8704C138.084 38.7158 138.191 38.4568 138.191 38.0933C138.191 37.7596 138.072 37.5195 137.833 37.373C137.594 37.2238 137.214 37.1493 136.694 37.1493H135.676V39.0983ZM135.676 39.6842V41.91H136.917C137.397 41.91 137.758 41.8178 138 41.6333C138.244 41.4461 138.366 41.1545 138.366 40.7585C138.366 40.3895 138.241 40.1183 137.992 39.9447C137.745 39.7711 137.368 39.6842 136.86 39.6842H135.676Z" fill="white"/>
<path d="M145.552 39.5174C145.552 40.4696 145.31 41.2183 144.827 41.7635C144.347 42.3088 143.679 42.5814 142.821 42.5814C141.945 42.5814 141.268 42.3142 140.791 41.7798C140.316 41.2427 140.079 40.4858 140.079 39.5093C140.079 38.5409 140.318 37.7908 140.795 37.2591C141.273 36.7247 141.951 36.4575 142.83 36.4575C143.684 36.4575 144.351 36.7288 144.832 37.2713C145.312 37.8139 145.552 38.5626 145.552 39.5174ZM140.811 39.5174C140.811 40.3231 140.982 40.9348 141.324 41.3525C141.669 41.7676 142.168 41.9751 142.821 41.9751C143.481 41.9751 143.978 41.7676 144.315 41.3525C144.651 40.9375 144.819 40.3258 144.819 39.5174C144.819 38.7172 144.651 38.1109 144.315 37.6986C143.981 37.2835 143.486 37.076 142.83 37.076C142.17 37.076 141.669 37.2849 141.324 37.7026C140.982 38.1177 140.811 38.7226 140.811 39.5174Z" fill="white"/>
<path d="M148.713 42.5H148.022V37.1655H146.138V36.5511H150.597V37.1655H148.713V42.5Z" fill="white"/>
<path d="M166.816 42.5H166.124V37.1655H164.24V36.5511H168.7V37.1655H166.816V42.5Z" fill="white" fill-opacity="0.3"/>
<path d="M173.346 40.2661C173.346 40.9931 173.163 41.5614 172.797 41.971C172.431 42.3779 171.925 42.5813 171.279 42.5813C170.881 42.5813 170.527 42.4878 170.217 42.3006C169.908 42.1134 169.669 41.8448 169.501 41.4949C169.333 41.145 169.249 40.7354 169.249 40.2661C169.249 39.5391 169.431 38.9735 169.794 38.5693C170.158 38.1624 170.662 37.9589 171.308 37.9589C171.932 37.9589 172.427 38.1665 172.793 38.5815C173.162 38.9965 173.346 39.5581 173.346 40.2661ZM169.949 40.2661C169.949 40.8357 170.063 41.2698 170.291 41.5682C170.518 41.8666 170.853 42.0157 171.296 42.0157C171.738 42.0157 172.073 41.8679 172.301 41.5722C172.531 41.2738 172.646 40.8384 172.646 40.2661C172.646 39.6991 172.531 39.2692 172.301 38.9762C172.073 38.6805 171.735 38.5327 171.287 38.5327C170.845 38.5327 170.512 38.6778 170.286 38.9681C170.061 39.2583 169.949 39.691 169.949 40.2661Z" fill="white" fill-opacity="0.3"/>
<path d="M177.57 41.9018H177.533C177.221 42.3548 176.755 42.5813 176.134 42.5813C175.55 42.5813 175.096 42.382 174.771 41.9832C174.448 41.5844 174.286 41.0175 174.286 40.2823C174.286 39.5472 174.449 38.9762 174.775 38.5693C175.1 38.1624 175.553 37.9589 176.134 37.9589C176.739 37.9589 177.202 38.1787 177.525 38.6181H177.578L177.55 38.2967L177.533 37.9834V36.1686H178.209V42.5H177.66L177.57 41.9018ZM176.219 42.0157C176.68 42.0157 177.014 41.891 177.22 41.6414C177.429 41.3891 177.533 40.9836 177.533 40.4248V40.2823C177.533 39.6503 177.428 39.2 177.216 38.9314C177.007 38.6602 176.672 38.5245 176.211 38.5245C175.815 38.5245 175.511 38.6792 175.299 38.9884C175.091 39.2949 174.986 39.729 174.986 40.2905C174.986 40.8601 175.091 41.2901 175.299 41.5804C175.508 41.8706 175.815 42.0157 176.219 42.0157Z" fill="white" fill-opacity="0.3"/>
<path d="M182.388 42.5L182.253 41.8652H182.221C181.998 42.1446 181.776 42.3345 181.554 42.4349C181.334 42.5325 181.058 42.5813 180.728 42.5813C180.285 42.5813 179.938 42.4674 179.686 42.2395C179.436 42.0117 179.312 41.6875 179.312 41.267C179.312 40.3664 180.032 39.8944 181.472 39.851L182.229 39.8266V39.5499C182.229 39.2 182.153 38.9423 182.001 38.7768C181.852 38.6086 181.612 38.5245 181.281 38.5245C180.909 38.5245 180.489 38.6385 180.02 38.8663L179.812 38.3496C180.032 38.2302 180.272 38.1366 180.532 38.0688C180.795 38.001 181.058 37.9671 181.322 37.9671C181.853 37.9671 182.247 38.0851 182.502 38.3211C182.759 38.5571 182.888 38.9355 182.888 39.4563V42.5H182.388ZM180.862 42.0239C181.282 42.0239 181.612 41.9086 181.851 41.678C182.092 41.4474 182.213 41.1246 182.213 40.7096V40.3068L181.537 40.3352C181 40.3542 180.612 40.4383 180.374 40.5875C180.138 40.734 180.02 40.9632 180.02 41.2752C180.02 41.5193 180.093 41.7051 180.239 41.8326C180.388 41.9601 180.596 42.0239 180.862 42.0239Z" fill="white" fill-opacity="0.3"/>
<path d="M183.576 38.0403H184.3L185.277 40.5835C185.491 41.164 185.624 41.5831 185.675 41.8408H185.708C185.743 41.7024 185.817 41.4664 185.928 41.1328C186.042 40.7964 186.411 39.7656 187.035 38.0403H187.759L185.842 43.1184C185.652 43.6203 185.43 43.9757 185.175 44.1845C184.923 44.3961 184.612 44.5019 184.243 44.5019C184.037 44.5019 183.834 44.4789 183.633 44.4327V43.8916C183.782 43.9241 183.949 43.9404 184.133 43.9404C184.597 43.9404 184.928 43.68 185.126 43.1591L185.374 42.5244L183.576 38.0403Z" fill="white" fill-opacity="0.3"/>
<path d="M193.39 42.5L193.256 41.8652H193.223C193.001 42.1446 192.779 42.3345 192.556 42.4349C192.336 42.5325 192.061 42.5813 191.73 42.5813C191.288 42.5813 190.941 42.4674 190.688 42.2395C190.439 42.0117 190.314 41.6875 190.314 41.267C190.314 40.3664 191.034 39.8944 192.475 39.851L193.232 39.8266V39.5499C193.232 39.2 193.156 38.9423 193.004 38.7768C192.855 38.6086 192.614 38.5245 192.284 38.5245C191.912 38.5245 191.491 38.6385 191.022 38.8663L190.815 38.3496C191.034 38.2302 191.274 38.1366 191.535 38.0688C191.798 38.001 192.061 37.9671 192.324 37.9671C192.856 37.9671 193.249 38.0851 193.504 38.3211C193.762 38.5571 193.891 38.9355 193.891 39.4563V42.5H193.39ZM191.864 42.0239C192.285 42.0239 192.614 41.9086 192.853 41.678C193.095 41.4474 193.215 41.1246 193.215 40.7096V40.3068L192.54 40.3352C192.003 40.3542 191.615 40.4383 191.376 40.5875C191.14 40.734 191.022 40.9632 191.022 41.2752C191.022 41.5193 191.095 41.7051 191.242 41.8326C191.391 41.9601 191.599 42.0239 191.864 42.0239Z" fill="white" fill-opacity="0.3"/>
<path d="M196.727 42.0239C196.846 42.0239 196.962 42.0157 197.073 41.9995C197.184 41.9805 197.272 41.9615 197.337 41.9425V42.4593C197.264 42.4945 197.155 42.523 197.012 42.5447C196.871 42.5691 196.743 42.5813 196.629 42.5813C195.767 42.5813 195.335 42.127 195.335 41.2182V38.5652H194.696V38.2397L195.335 37.9589L195.62 37.0068H196.011V38.0403H197.305V38.5652H196.011V41.1897C196.011 41.4583 196.074 41.6645 196.202 41.8082C196.329 41.952 196.504 42.0239 196.727 42.0239Z" fill="white" fill-opacity="0.3"/>
<path d="M204.279 41.1328H203.396V42.5H202.749V41.1328H199.856V40.5428L202.68 36.5185H203.396V40.5184H204.279V41.1328ZM202.749 40.5184V38.5408C202.749 38.1529 202.763 37.7148 202.79 37.2265H202.757C202.627 37.4869 202.505 37.7026 202.391 37.8735L200.531 40.5184H202.749Z" fill="white" fill-opacity="0.3"/>
<path d="M205.068 42.0686C205.068 41.8869 205.109 41.7499 205.19 41.6577C205.275 41.5627 205.394 41.5153 205.549 41.5153C205.706 41.5153 205.828 41.5627 205.915 41.6577C206.004 41.7499 206.049 41.8869 206.049 42.0686C206.049 42.245 206.004 42.3806 205.915 42.4755C205.825 42.5705 205.703 42.618 205.549 42.618C205.41 42.618 205.295 42.5759 205.203 42.4918C205.113 42.405 205.068 42.264 205.068 42.0686ZM205.068 38.4757C205.068 38.1095 205.228 37.9264 205.549 37.9264C205.882 37.9264 206.049 38.1095 206.049 38.4757C206.049 38.652 206.004 38.7877 205.915 38.8826C205.825 38.9776 205.703 39.025 205.549 39.025C205.41 39.025 205.295 38.983 205.203 38.8989C205.113 38.8121 205.068 38.671 205.068 38.4757Z" fill="white" fill-opacity="0.3"/>
<path d="M210.989 42.5H207.078V41.9181L208.645 40.3434C209.122 39.8605 209.437 39.516 209.589 39.3099C209.741 39.1037 209.855 38.903 209.931 38.7076C210.007 38.5123 210.045 38.3021 210.045 38.0769C210.045 37.7596 209.948 37.5086 209.756 37.3242C209.563 37.137 209.296 37.0434 208.954 37.0434C208.707 37.0434 208.473 37.0841 208.25 37.1655C208.031 37.2469 207.785 37.3947 207.514 37.609L207.156 37.1492C207.704 36.6935 208.301 36.4656 208.946 36.4656C209.505 36.4656 209.943 36.6094 210.26 36.8969C210.578 37.1818 210.736 37.5656 210.736 38.0485C210.736 38.4255 210.631 38.7985 210.419 39.1674C210.208 39.5364 209.811 40.0029 209.231 40.5672L207.929 41.8408V41.8733H210.989V42.5Z" fill="white" fill-opacity="0.3"/>
<path d="M215.79 39.5174C215.79 40.5455 215.627 41.3132 215.302 41.8204C214.979 42.3277 214.484 42.5813 213.817 42.5813C213.177 42.5813 212.69 42.3223 212.356 41.8042C212.022 41.2833 211.855 40.5211 211.855 39.5174C211.855 38.4811 212.017 37.7121 212.34 37.2102C212.662 36.7084 213.155 36.4575 213.817 36.4575C214.462 36.4575 214.952 36.7193 215.286 37.2428C215.622 37.7663 215.79 38.5245 215.79 39.5174ZM212.539 39.5174C212.539 40.3827 212.641 41.0134 212.844 41.4095C213.048 41.8028 213.372 41.9995 213.817 41.9995C214.267 41.9995 214.593 41.8001 214.793 41.4013C214.997 40.9999 215.098 40.3719 215.098 39.5174C215.098 38.6629 214.997 38.0376 214.793 37.6416C214.593 37.2428 214.267 37.0434 213.817 37.0434C213.372 37.0434 213.048 37.2401 212.844 37.6334C212.641 38.024 212.539 38.652 212.539 39.5174Z" fill="white" fill-opacity="0.3"/>
<path d="M222.964 38.2845C222.964 38.8867 222.758 39.3505 222.345 39.6761C221.936 39.9989 221.348 40.1603 220.583 40.1603H219.884V42.5H219.192V36.5511H220.734C222.221 36.5511 222.964 37.1289 222.964 38.2845ZM219.884 39.5662H220.506C221.119 39.5662 221.563 39.4672 221.837 39.2692C222.111 39.0711 222.248 38.7538 222.248 38.317C222.248 37.9237 222.119 37.6307 221.861 37.4381C221.603 37.2455 221.202 37.1492 220.657 37.1492H219.884V39.5662Z" fill="white" fill-opacity="0.3"/>
<path d="M226.846 42.5L224.827 37.2265H224.795C224.833 37.6443 224.852 38.1407 224.852 38.7158V42.5H224.213V36.5511H225.255L227.139 41.4583H227.171L229.071 36.5511H230.105V42.5H229.413V38.667C229.413 38.2275 229.432 37.7501 229.47 37.2347H229.438L227.403 42.5H226.846Z" fill="white" fill-opacity="0.3"/>
<path d="M111.77 116.667H109.526L105.902 110.366H105.851C105.923 111.479 105.959 112.273 105.959 112.747V116.667H104.382V108.338H106.609L110.226 114.576H110.266C110.209 113.494 110.181 112.728 110.181 112.28V108.338H111.77V116.667Z" fill="white"/>
<path d="M117.78 116.667L117.444 115.801H117.398C117.106 116.169 116.804 116.426 116.493 116.57C116.185 116.71 115.782 116.781 115.285 116.781C114.673 116.781 114.191 116.606 113.838 116.257C113.488 115.907 113.314 115.41 113.314 114.764C113.314 114.088 113.549 113.59 114.02 113.271C114.495 112.949 115.209 112.77 116.162 112.736L117.267 112.702V112.423C117.267 111.777 116.937 111.454 116.276 111.454C115.767 111.454 115.169 111.608 114.482 111.916L113.906 110.742C114.639 110.359 115.452 110.167 116.344 110.167C117.199 110.167 117.854 110.353 118.31 110.725C118.765 111.097 118.993 111.663 118.993 112.423V116.667H117.78ZM117.267 113.716L116.595 113.739C116.09 113.754 115.714 113.845 115.467 114.012C115.22 114.179 115.097 114.434 115.097 114.775C115.097 115.265 115.378 115.51 115.94 115.51C116.342 115.51 116.663 115.394 116.903 115.163C117.146 114.931 117.267 114.623 117.267 114.24V113.716Z" fill="white"/>
<path d="M123.471 115.396C123.775 115.396 124.139 115.33 124.565 115.197V116.49C124.132 116.684 123.6 116.781 122.97 116.781C122.275 116.781 121.768 116.606 121.449 116.257C121.133 115.903 120.976 115.375 120.976 114.673V111.602H120.144V110.868L121.101 110.286L121.602 108.942H122.713V110.298H124.496V111.602H122.713V114.673C122.713 114.92 122.782 115.102 122.918 115.22C123.059 115.337 123.243 115.396 123.471 115.396Z" fill="white"/>
<path d="M128.495 111.414C128.127 111.414 127.838 111.532 127.629 111.768C127.421 111.999 127.301 112.33 127.27 112.759H129.709C129.701 112.33 129.589 111.999 129.373 111.768C129.156 111.532 128.864 111.414 128.495 111.414ZM128.74 116.781C127.715 116.781 126.914 116.498 126.336 115.932C125.759 115.366 125.47 114.565 125.47 113.528C125.47 112.461 125.736 111.637 126.268 111.056C126.803 110.471 127.542 110.178 128.484 110.178C129.384 110.178 130.085 110.435 130.586 110.947C131.087 111.46 131.338 112.168 131.338 113.072V113.915H127.231C127.25 114.409 127.396 114.794 127.669 115.072C127.943 115.349 128.326 115.487 128.82 115.487C129.204 115.487 129.566 115.448 129.908 115.368C130.25 115.288 130.607 115.161 130.979 114.986V116.331C130.675 116.482 130.35 116.595 130.005 116.667C129.659 116.743 129.238 116.781 128.74 116.781Z" fill="white"/>
<path d="M136.1 116.667H134.334V109.808H132.073V108.338H138.362V109.808H136.1V116.667Z" fill="white"/>
<path d="M145.386 116.667H143.648V112.947C143.648 112.028 143.306 111.568 142.623 111.568C142.137 111.568 141.785 111.733 141.569 112.064C141.353 112.394 141.244 112.93 141.244 113.67V116.667H139.507V107.803H141.244V109.609C141.244 109.749 141.231 110.079 141.204 110.6L141.165 111.112H141.256C141.643 110.49 142.258 110.178 143.101 110.178C143.85 110.178 144.417 110.38 144.805 110.782C145.192 111.185 145.386 111.762 145.386 112.514V116.667Z" fill="white"/>
<path d="M149.812 111.414C149.444 111.414 149.155 111.532 148.946 111.768C148.737 111.999 148.618 112.33 148.587 112.759H151.025C151.018 112.33 150.906 111.999 150.689 111.768C150.473 111.532 150.18 111.414 149.812 111.414ZM150.057 116.781C149.032 116.781 148.23 116.498 147.653 115.932C147.076 115.366 146.787 114.565 146.787 113.528C146.787 112.461 147.053 111.637 147.585 111.056C148.12 110.471 148.859 110.178 149.801 110.178C150.701 110.178 151.401 110.435 151.903 110.947C152.404 111.46 152.655 112.168 152.655 113.072V113.915H148.547C148.566 114.409 148.713 114.794 148.986 115.072C149.259 115.349 149.643 115.487 150.137 115.487C150.52 115.487 150.883 115.448 151.225 115.368C151.567 115.288 151.924 115.161 152.296 114.986V116.331C151.992 116.482 151.667 116.595 151.322 116.667C150.976 116.743 150.554 116.781 150.057 116.781Z" fill="white"/>
<path d="M157.73 116.667L155.725 110.133H155.674C155.746 111.462 155.782 112.349 155.782 112.793V116.667H154.204V108.338H156.608L158.579 114.707H158.613L160.704 108.338H163.108V116.667H161.462V112.725C161.462 112.539 161.463 112.324 161.467 112.081C161.475 111.838 161.501 111.192 161.547 110.144H161.496L159.348 116.667H157.73Z" fill="white"/>
<path d="M167.5 108.23C168.298 108.23 168.939 108.412 169.425 108.777C169.915 109.138 170.16 109.626 170.16 110.241C170.16 110.666 170.043 111.046 169.807 111.38C169.572 111.711 169.192 112.007 168.668 112.269C169.291 112.603 169.737 112.952 170.007 113.317C170.28 113.678 170.417 114.075 170.417 114.508C170.417 115.191 170.149 115.742 169.613 116.16C169.078 116.574 168.373 116.781 167.5 116.781C166.589 116.781 165.873 116.587 165.352 116.2C164.832 115.812 164.572 115.263 164.572 114.553C164.572 114.079 164.697 113.657 164.948 113.289C165.202 112.92 165.609 112.595 166.167 112.314C165.692 112.014 165.35 111.694 165.142 111.352C164.933 111.01 164.828 110.636 164.828 110.229C164.828 109.633 165.075 109.151 165.569 108.783C166.063 108.414 166.706 108.23 167.5 108.23ZM166.201 114.451C166.201 114.777 166.315 115.032 166.543 115.214C166.771 115.396 167.082 115.487 167.477 115.487C167.914 115.487 168.241 115.394 168.457 115.208C168.673 115.018 168.782 114.77 168.782 114.462C168.782 114.208 168.673 113.97 168.457 113.75C168.244 113.526 167.897 113.289 167.415 113.038C166.606 113.41 166.201 113.881 166.201 114.451ZM167.489 109.517C167.189 109.517 166.946 109.595 166.759 109.751C166.577 109.903 166.486 110.108 166.486 110.366C166.486 110.594 166.558 110.799 166.702 110.981C166.851 111.16 167.116 111.344 167.5 111.534C167.872 111.359 168.132 111.181 168.28 110.999C168.429 110.816 168.503 110.605 168.503 110.366C168.503 110.104 168.408 109.897 168.218 109.745C168.028 109.593 167.785 109.517 167.489 109.517Z" fill="white"/>
<path d="M173.14 108.338L173.219 108.464C173.03 109.212 172.695 110.121 172.217 111.192H170.969C171.231 110.068 171.421 109.117 171.539 108.338H173.14Z" fill="white"/>
<path d="M178.711 114.775C178.711 115.429 178.483 115.926 178.027 116.268C177.575 116.61 176.898 116.781 175.994 116.781C175.53 116.781 175.135 116.748 174.809 116.684C174.482 116.623 174.176 116.532 173.892 116.41V114.975C174.214 115.127 174.577 115.254 174.98 115.356C175.386 115.459 175.743 115.51 176.051 115.51C176.681 115.51 176.996 115.328 176.996 114.963C176.996 114.827 176.954 114.717 176.871 114.633C176.787 114.546 176.643 114.449 176.438 114.342C176.233 114.232 175.959 114.105 175.618 113.961C175.128 113.756 174.767 113.566 174.535 113.391C174.307 113.216 174.14 113.017 174.034 112.793C173.931 112.565 173.88 112.286 173.88 111.956C173.88 111.39 174.099 110.953 174.535 110.645C174.976 110.334 175.599 110.178 176.404 110.178C177.171 110.178 177.917 110.345 178.643 110.68L178.118 111.933C177.799 111.796 177.501 111.684 177.224 111.597C176.947 111.509 176.664 111.466 176.375 111.466C175.863 111.466 175.606 111.604 175.606 111.882C175.606 112.037 175.688 112.172 175.851 112.286C176.018 112.4 176.381 112.569 176.939 112.793C177.437 112.994 177.801 113.182 178.033 113.357C178.265 113.532 178.436 113.733 178.546 113.961C178.656 114.189 178.711 114.46 178.711 114.775Z" fill="white"/>
<path d="M183.234 116.667V108.338H185V115.208H188.378V116.667H183.234Z" fill="white"/>
<path d="M189.62 108.652C189.62 108.086 189.935 107.803 190.566 107.803C191.196 107.803 191.511 108.086 191.511 108.652C191.511 108.921 191.431 109.132 191.272 109.284C191.116 109.432 190.881 109.506 190.566 109.506C189.935 109.506 189.62 109.221 189.62 108.652ZM191.431 116.667H189.694V110.298H191.431V116.667Z" fill="white"/>
<path d="M196.803 110.178C197.555 110.178 198.144 110.473 198.569 111.061C198.995 111.646 199.207 112.449 199.207 113.471C199.207 114.523 198.987 115.337 198.547 115.915C198.11 116.492 197.514 116.781 196.758 116.781C196.01 116.781 195.423 116.509 194.998 115.966H194.878L194.587 116.667H193.26V107.803H194.998V109.865C194.998 110.127 194.975 110.547 194.929 111.124H194.998C195.404 110.493 196.006 110.178 196.803 110.178ZM196.245 111.568C195.816 111.568 195.503 111.701 195.305 111.967C195.108 112.229 195.005 112.664 194.998 113.271V113.459C194.998 114.143 195.098 114.633 195.299 114.929C195.505 115.225 195.827 115.374 196.268 115.374C196.625 115.374 196.908 115.21 197.117 114.884C197.329 114.553 197.436 114.075 197.436 113.448C197.436 112.821 197.329 112.352 197.117 112.041C196.904 111.726 196.613 111.568 196.245 111.568Z" fill="white"/>
<path d="M204.198 110.178C204.433 110.178 204.629 110.195 204.784 110.229L204.653 111.859C204.513 111.821 204.342 111.802 204.141 111.802C203.586 111.802 203.153 111.944 202.842 112.229C202.534 112.514 202.38 112.913 202.38 113.425V116.667H200.643V110.298H201.959L202.215 111.369H202.301C202.498 111.012 202.764 110.725 203.098 110.509C203.436 110.288 203.803 110.178 204.198 110.178Z" fill="white"/>
<path d="M209.985 116.667L209.649 115.801H209.604C209.311 116.169 209.009 116.426 208.698 116.57C208.39 116.71 207.988 116.781 207.49 116.781C206.879 116.781 206.396 116.606 206.043 116.257C205.694 115.907 205.519 115.41 205.519 114.764C205.519 114.088 205.755 113.59 206.226 113.271C206.7 112.949 207.414 112.77 208.368 112.736L209.473 112.702V112.423C209.473 111.777 209.142 111.454 208.481 111.454C207.973 111.454 207.374 111.608 206.687 111.916L206.112 110.742C206.845 110.359 207.657 110.167 208.55 110.167C209.404 110.167 210.059 110.353 210.515 110.725C210.971 111.097 211.199 111.663 211.199 112.423V116.667H209.985ZM209.473 113.716L208.8 113.739C208.295 113.754 207.919 113.845 207.673 114.012C207.426 114.179 207.302 114.434 207.302 114.775C207.302 115.265 207.583 115.51 208.145 115.51C208.548 115.51 208.869 115.394 209.108 115.163C209.351 114.931 209.473 114.623 209.473 114.24V113.716Z" fill="white"/>
<path d="M216.548 110.178C216.783 110.178 216.979 110.195 217.135 110.229L217.004 111.859C216.863 111.821 216.692 111.802 216.491 111.802C215.936 111.802 215.503 111.944 215.192 112.229C214.884 112.514 214.731 112.913 214.731 113.425V116.667H212.993V110.298H214.309L214.565 111.369H214.651C214.848 111.012 215.114 110.725 215.448 110.509C215.786 110.288 216.153 110.178 216.548 110.178Z" fill="white"/>
<path d="M218.217 108.652C218.217 108.086 218.532 107.803 219.163 107.803C219.793 107.803 220.108 108.086 220.108 108.652C220.108 108.921 220.028 109.132 219.869 109.284C219.713 109.432 219.478 109.506 219.163 109.506C218.532 109.506 218.217 109.221 218.217 108.652ZM220.028 116.667H218.291V110.298H220.028V116.667Z" fill="white"/>
<path d="M224.495 111.414C224.126 111.414 223.838 111.532 223.629 111.768C223.42 111.999 223.3 112.33 223.27 112.759H225.708C225.7 112.33 225.588 111.999 225.372 111.768C225.155 111.532 224.863 111.414 224.495 111.414ZM224.74 116.781C223.714 116.781 222.913 116.498 222.336 115.932C221.758 115.366 221.47 114.565 221.47 113.528C221.47 112.461 221.736 111.637 222.267 111.056C222.803 110.471 223.541 110.178 224.483 110.178C225.383 110.178 226.084 110.435 226.585 110.947C227.087 111.46 227.337 112.168 227.337 113.072V113.915H223.23C223.249 114.409 223.395 114.794 223.669 115.072C223.942 115.349 224.326 115.487 224.819 115.487C225.203 115.487 225.566 115.448 225.907 115.368C226.249 115.288 226.606 115.161 226.978 114.986V116.331C226.675 116.482 226.35 116.595 226.004 116.667C225.659 116.743 225.237 116.781 224.74 116.781Z" fill="white"/>
<path d="M233.193 114.775C233.193 115.429 232.965 115.926 232.51 116.268C232.058 116.61 231.38 116.781 230.476 116.781C230.013 116.781 229.618 116.748 229.291 116.684C228.965 116.623 228.659 116.532 228.374 116.41V114.975C228.697 115.127 229.06 115.254 229.462 115.356C229.868 115.459 230.225 115.51 230.533 115.51C231.163 115.51 231.479 115.328 231.479 114.963C231.479 114.827 231.437 114.717 231.353 114.633C231.27 114.546 231.125 114.449 230.92 114.342C230.715 114.232 230.442 114.105 230.1 113.961C229.61 113.756 229.249 113.566 229.018 113.391C228.79 113.216 228.623 113.017 228.516 112.793C228.414 112.565 228.363 112.286 228.363 111.956C228.363 111.39 228.581 110.953 229.018 110.645C229.458 110.334 230.081 110.178 230.886 110.178C231.653 110.178 232.4 110.345 233.125 110.68L232.601 111.933C232.282 111.796 231.984 111.684 231.707 111.597C231.429 111.509 231.146 111.466 230.858 111.466C230.345 111.466 230.089 111.604 230.089 111.882C230.089 112.037 230.17 112.172 230.334 112.286C230.501 112.4 230.863 112.569 231.422 112.793C231.919 112.994 232.284 113.182 232.515 113.357C232.747 113.532 232.918 113.733 233.028 113.961C233.138 114.189 233.193 114.46 233.193 114.775Z" fill="white"/>
<path d="M96.5503 69.8828C96.5503 70.4297 96.463 70.931 96.2883 71.3867C96.1136 71.8387 95.8667 72.1937 95.5477 72.452C95.2287 72.7102 94.8584 72.8394 94.4369 72.8394C94.1558 72.8394 93.9071 72.7729 93.6906 72.64C93.4741 72.5033 93.3184 72.3248 93.2235 72.1045H93.1323C92.7222 72.5944 92.2 72.8394 91.5658 72.8394C90.8936 72.8394 90.3638 72.6381 89.9764 72.2355C89.589 71.8292 89.3954 71.2747 89.3954 70.5721C89.3954 69.7708 89.6498 69.1252 90.1587 68.6353C90.6676 68.1453 91.3322 67.9004 92.1525 67.9004C92.4791 67.9004 92.838 67.9327 93.2292 67.9972C93.6241 68.058 93.9488 68.1321 94.2033 68.2194L94.0723 71.005C94.0723 71.5329 94.2166 71.7969 94.5052 71.7969C94.7483 71.7969 94.942 71.6203 95.0863 71.2671C95.2306 70.9101 95.3027 70.4449 95.3027 69.8714C95.3027 69.26 95.1755 68.7207 94.9211 68.2536C94.6666 67.7827 94.3077 67.4238 93.8444 67.1769C93.3849 66.9301 92.8589 66.8066 92.2664 66.8066C91.4993 66.8066 90.8328 66.9642 90.2669 67.2795C89.7011 67.5947 89.2662 68.0504 88.9624 68.6466C88.6624 69.2391 88.5124 69.9246 88.5124 70.7031C88.5124 71.7513 88.7915 72.5564 89.3498 73.1185C89.9118 73.6768 90.7246 73.9559 91.7879 73.9559C92.1905 73.9559 92.6329 73.9122 93.1152 73.8249C93.5976 73.7337 94.0723 73.6027 94.5394 73.4318V74.5256C93.7267 74.8711 92.8247 75.0439 91.8335 75.0439C90.3904 75.0439 89.2643 74.6642 88.4554 73.9046C87.6503 73.1451 87.2477 72.0893 87.2477 70.7373C87.2477 69.7993 87.4528 68.9486 87.863 68.1852C88.2769 67.4181 88.8637 66.818 89.6232 66.3851C90.3866 65.9484 91.2638 65.73 92.2551 65.73C93.0906 65.73 93.8368 65.9009 94.4938 66.2427C95.1508 66.5845 95.6578 67.0706 96.0148 67.701C96.3718 68.3314 96.5503 69.0587 96.5503 69.8828ZM90.717 70.5949C90.717 71.3962 91.0436 71.7969 91.6968 71.7969C92.0386 71.7969 92.2987 71.6772 92.4772 71.438C92.6557 71.1949 92.7639 70.8019 92.8019 70.2588L92.876 68.9998C92.6823 68.9581 92.4639 68.9372 92.2209 68.9372C91.7462 68.9372 91.3759 69.0853 91.11 69.3815C90.848 69.6777 90.717 70.0822 90.717 70.5949Z" fill="white"/>
<path d="M105.574 74.1667H103.329L99.7062 67.8662H99.655C99.7271 68.9789 99.7632 69.7727 99.7632 70.2474V74.1667H98.1852V65.8382H100.413L104.03 72.076H104.07C104.013 70.9937 103.984 70.2284 103.984 69.7803V65.8382H105.574V74.1667Z" fill="white"/>
<path d="M111.584 74.1667L111.248 73.3008H111.202C110.91 73.6692 110.608 73.9255 110.296 74.0698C109.989 74.2103 109.586 74.2806 109.089 74.2806C108.477 74.2806 107.995 74.1059 107.642 73.7565C107.292 73.4071 107.118 72.9096 107.118 72.264C107.118 71.588 107.353 71.0905 107.824 70.7715C108.299 70.4487 109.013 70.2702 109.966 70.236L111.071 70.2018V69.9227C111.071 69.2771 110.741 68.9543 110.08 68.9543C109.571 68.9543 108.973 69.1081 108.285 69.4157L107.71 68.2422C108.443 67.8586 109.256 67.6668 110.148 67.6668C111.003 67.6668 111.658 67.8529 112.113 68.2251C112.569 68.5973 112.797 69.1631 112.797 69.9227V74.1667H111.584ZM111.071 71.2158L110.399 71.2386C109.894 71.2538 109.518 71.3449 109.271 71.512C109.024 71.6791 108.901 71.9336 108.901 72.2754C108.901 72.7653 109.182 73.0103 109.744 73.0103C110.146 73.0103 110.467 72.8944 110.706 72.6628C110.949 72.4311 111.071 72.1235 111.071 71.7399V71.2158Z" fill="white"/>
<path d="M117.275 72.8963C117.578 72.8963 117.943 72.8299 118.368 72.6969V73.9901C117.935 74.1838 117.404 74.2806 116.773 74.2806C116.078 74.2806 115.571 74.1059 115.252 73.7565C114.937 73.4033 114.779 72.8754 114.779 72.1729V69.1024H113.948V68.3675L114.905 67.7865L115.406 66.4421H116.517V67.7979H118.3V69.1024H116.517V72.1729C116.517 72.4197 116.585 72.602 116.722 72.7197C116.863 72.8375 117.047 72.8963 117.275 72.8963Z" fill="white"/>
<path d="M122.299 68.9144C121.931 68.9144 121.642 69.0321 121.433 69.2676C121.224 69.4992 121.105 69.8296 121.074 70.2588H123.512C123.505 69.8296 123.393 69.4992 123.176 69.2676C122.96 69.0321 122.667 68.9144 122.299 68.9144ZM122.544 74.2806C121.519 74.2806 120.717 73.9977 120.14 73.4318C119.563 72.8659 119.274 72.0646 119.274 71.0278C119.274 69.9607 119.54 69.1366 120.072 68.5555C120.607 67.9706 121.346 67.6782 122.288 67.6782C123.188 67.6782 123.888 67.9346 124.39 68.4473C124.891 68.96 125.142 69.6682 125.142 70.5721V71.4152H121.034C121.053 71.9089 121.2 72.2944 121.473 72.5716C121.746 72.8489 122.13 72.9875 122.624 72.9875C123.007 72.9875 123.37 72.9476 123.712 72.8678C124.054 72.7881 124.411 72.6609 124.783 72.4862V73.8306C124.479 73.9825 124.154 74.0945 123.809 74.1667C123.463 74.2426 123.041 74.2806 122.544 74.2806Z" fill="white"/>
<path d="M129.904 74.1667H128.138V67.3079H125.876V65.8382H132.166V67.3079H129.904V74.1667Z" fill="white"/>
<path d="M139.189 74.1667H137.452V70.4468C137.452 69.5277 137.11 69.0682 136.427 69.0682C135.94 69.0682 135.589 69.2334 135.373 69.5638C135.156 69.8942 135.048 70.4297 135.048 71.1702V74.1667H133.311V65.3027H135.048V67.1086C135.048 67.2491 135.035 67.5795 135.008 68.0998L134.968 68.6125H135.059C135.447 67.9896 136.062 67.6782 136.905 67.6782C137.653 67.6782 138.221 67.8795 138.608 68.2821C138.996 68.6846 139.189 69.2619 139.189 70.0138V74.1667Z" fill="white"/>
<path d="M143.616 68.9144C143.247 68.9144 142.959 69.0321 142.75 69.2676C142.541 69.4992 142.421 69.8296 142.391 70.2588H144.829C144.822 69.8296 144.709 69.4992 144.493 69.2676C144.277 69.0321 143.984 68.9144 143.616 68.9144ZM143.861 74.2806C142.835 74.2806 142.034 73.9977 141.457 73.4318C140.879 72.8659 140.591 72.0646 140.591 71.0278C140.591 69.9607 140.857 69.1366 141.388 68.5555C141.924 67.9706 142.662 67.6782 143.604 67.6782C144.504 67.6782 145.205 67.9346 145.706 68.4473C146.208 68.96 146.458 69.6682 146.458 70.5721V71.4152H142.351C142.37 71.9089 142.516 72.2944 142.79 72.5716C143.063 72.8489 143.447 72.9875 143.94 72.9875C144.324 72.9875 144.687 72.9476 145.028 72.8678C145.37 72.7881 145.727 72.6609 146.099 72.4862V73.8306C145.796 73.9825 145.471 74.0945 145.125 74.1667C144.78 74.2426 144.358 74.2806 143.861 74.2806Z" fill="white"/>
<path d="M151.534 74.1667L149.529 67.6326H149.478C149.55 68.9619 149.586 69.8486 149.586 70.293V74.1667H148.008V65.8382H150.412L152.383 72.207H152.417L154.508 65.8382H156.912V74.1667H155.265V70.2246C155.265 70.0385 155.267 69.8239 155.271 69.5809C155.279 69.3378 155.305 68.6922 155.351 67.644H155.299L153.152 74.1667H151.534Z" fill="white"/>
<path d="M161.304 65.73C162.101 65.73 162.743 65.9123 163.229 66.2769C163.719 66.6376 163.964 67.1257 163.964 67.7409C163.964 68.1662 163.846 68.546 163.611 68.8802C163.375 69.2106 162.996 69.5068 162.472 69.7689C163.094 70.1031 163.541 70.4525 163.81 70.8171C164.084 71.1778 164.22 71.5747 164.22 72.0076C164.22 72.6912 163.953 73.2419 163.417 73.6597C162.882 74.0736 162.177 74.2806 161.304 74.2806C160.392 74.2806 159.676 74.0869 159.156 73.6995C158.636 73.3122 158.376 72.7634 158.376 72.0532C158.376 71.5785 158.501 71.157 158.752 70.7886C159.006 70.4202 159.412 70.0955 159.971 69.8145C159.496 69.5144 159.154 69.1935 158.945 68.8517C158.736 68.5099 158.632 68.1359 158.632 67.7295C158.632 67.1332 158.879 66.6509 159.373 66.2826C159.866 65.9142 160.51 65.73 161.304 65.73ZM160.005 71.9507C160.005 72.2773 160.119 72.5317 160.347 72.714C160.575 72.8963 160.886 72.9875 161.281 72.9875C161.718 72.9875 162.044 72.8944 162.261 72.7083C162.477 72.5184 162.585 72.2697 162.585 71.9621C162.585 71.7076 162.477 71.4703 162.261 71.25C162.048 71.0259 161.701 70.7886 161.218 70.5379C160.409 70.9101 160.005 71.381 160.005 71.9507ZM161.292 67.0174C160.992 67.0174 160.749 67.0953 160.563 67.251C160.381 67.4029 160.29 67.608 160.29 67.8662C160.29 68.0941 160.362 68.2992 160.506 68.4814C160.654 68.6599 160.92 68.8441 161.304 69.034C161.676 68.8593 161.936 68.6808 162.084 68.4985C162.232 68.3162 162.306 68.1055 162.306 67.8662C162.306 67.6042 162.211 67.3972 162.021 67.2453C161.832 67.0934 161.589 67.0174 161.292 67.0174Z" fill="white"/>
<path d="M173.762 74.1667L172.617 70.5037C172.545 70.2797 172.41 69.7708 172.213 68.9771H172.167C172.015 69.6417 171.882 70.1544 171.768 70.5151L170.589 74.1667H169.495L167.792 67.9232H168.783C169.186 69.4916 169.492 70.686 169.701 71.5063C169.913 72.3267 170.035 72.8792 170.065 73.1641H170.111C170.152 72.9476 170.219 72.6685 170.31 72.3267C170.405 71.9811 170.487 71.7076 170.555 71.5063L171.7 67.9232H172.725L173.842 71.5063C174.055 72.1596 174.199 72.7083 174.275 73.1527H174.32C174.336 73.016 174.376 72.8052 174.44 72.5203C174.508 72.2355 174.905 70.7031 175.631 67.9232H176.611L174.884 74.1667H173.762Z" fill="white"/>
<path d="M182.017 74.1667V70.1278C182.017 69.6189 181.901 69.2391 181.669 68.9884C181.437 68.7378 181.075 68.6125 180.581 68.6125C179.924 68.6125 179.444 68.791 179.14 69.1479C178.84 69.5049 178.69 70.0898 178.69 70.9025V74.1667H177.744V65.3027H178.69V67.9858C178.69 68.3086 178.675 68.5764 178.644 68.7891H178.701C178.887 68.489 179.151 68.2536 179.493 68.0827C179.839 67.908 180.232 67.8206 180.672 67.8206C181.436 67.8206 182.007 68.0029 182.387 68.3675C182.77 68.7283 182.962 69.3037 182.962 70.0936V74.1667H182.017Z" fill="white"/>
<path d="M188.75 74.1667L188.562 73.278H188.516C188.205 73.6692 187.894 73.935 187.582 74.0755C187.275 74.2122 186.889 74.2806 186.426 74.2806C185.807 74.2806 185.321 74.1211 184.967 73.8021C184.618 73.4831 184.443 73.0292 184.443 72.4406C184.443 71.1797 185.452 70.5189 187.468 70.4582L188.528 70.424V70.0366C188.528 69.5467 188.422 69.1859 188.209 68.9543C188 68.7188 187.664 68.6011 187.201 68.6011C186.68 68.6011 186.092 68.7606 185.435 69.0796L185.144 68.3561C185.452 68.189 185.788 68.058 186.152 67.9631C186.521 67.8681 186.889 67.8206 187.257 67.8206C188.002 67.8206 188.553 67.9858 188.91 68.3162C189.27 68.6466 189.451 69.1764 189.451 69.9056V74.1667H188.75ZM186.614 73.5002C187.202 73.5002 187.664 73.3388 187.998 73.016C188.336 72.6931 188.505 72.2412 188.505 71.6602V71.0962L187.559 71.1361C186.807 71.1627 186.264 71.2804 185.93 71.4893C185.6 71.6943 185.435 72.0152 185.435 72.452C185.435 72.7938 185.537 73.0539 185.742 73.2324C185.951 73.4109 186.242 73.5002 186.614 73.5002Z" fill="white"/>
<path d="M193.421 73.5002C193.588 73.5002 193.75 73.4888 193.905 73.466C194.061 73.4394 194.185 73.4128 194.276 73.3862V74.1097C194.173 74.1591 194.021 74.1989 193.82 74.2293C193.623 74.2635 193.444 74.2806 193.285 74.2806C192.077 74.2806 191.473 73.6445 191.473 72.3722V68.658H190.579V68.2023L191.473 67.8092L191.872 66.4762H192.419V67.9232H194.23V68.658H192.419V72.3324C192.419 72.7083 192.508 72.997 192.686 73.1982C192.865 73.3995 193.11 73.5002 193.421 73.5002Z" fill="white"/>
<path d="M199.505 74.1667H198.56V65.3027H199.505V74.1667Z" fill="white"/>
<path d="M202.456 74.1667H201.51V67.9232H202.456V74.1667ZM201.431 66.2313C201.431 66.0148 201.484 65.8572 201.59 65.7585C201.697 65.6559 201.829 65.6047 201.989 65.6047C202.141 65.6047 202.272 65.6559 202.382 65.7585C202.492 65.861 202.547 66.0186 202.547 66.2313C202.547 66.444 202.492 66.6035 202.382 66.7098C202.272 66.8123 202.141 66.8636 201.989 66.8636C201.829 66.8636 201.697 66.8123 201.59 66.7098C201.484 66.6035 201.431 66.444 201.431 66.2313Z" fill="white"/>
<path d="M207.367 67.8206C208.187 67.8206 208.823 68.1017 209.275 68.6637C209.731 69.222 209.959 70.0138 209.959 71.0392C209.959 72.0646 209.729 72.8621 209.269 73.4318C208.813 73.9977 208.179 74.2806 207.367 74.2806C206.96 74.2806 206.588 74.2065 206.25 74.0584C205.916 73.9065 205.635 73.6749 205.407 73.3634H205.339L205.139 74.1667H204.461V65.3027H205.407V67.4561C205.407 67.9384 205.392 68.3713 205.361 68.7549H205.407C205.847 68.1321 206.501 67.8206 207.367 67.8206ZM207.23 68.6125C206.584 68.6125 206.119 68.7986 205.834 69.1707C205.549 69.5391 205.407 70.1619 205.407 71.0392C205.407 71.9165 205.553 72.545 205.846 72.9248C206.138 73.3008 206.607 73.4888 207.253 73.4888C207.834 73.4888 208.267 73.278 208.551 72.8564C208.836 72.4311 208.979 71.8216 208.979 71.0278C208.979 70.2151 208.836 69.6094 208.551 69.2106C208.267 68.8118 207.826 68.6125 207.23 68.6125Z" fill="white"/>
<path d="M214.465 67.8092C214.742 67.8092 214.991 67.832 215.211 67.8776L215.08 68.7549C214.822 68.6979 214.594 68.6694 214.396 68.6694C213.891 68.6694 213.458 68.8745 213.097 69.2847C212.74 69.6948 212.562 70.2056 212.562 70.8171V74.1667H211.616V67.9232H212.397L212.505 69.0796H212.55C212.782 68.6732 213.061 68.3599 213.388 68.1396C213.714 67.9194 214.073 67.8092 214.465 67.8092Z" fill="white"/>
<path d="M220.218 74.1667L220.03 73.278H219.985C219.673 73.6692 219.362 73.935 219.05 74.0755C218.743 74.2122 218.357 74.2806 217.894 74.2806C217.275 74.2806 216.789 74.1211 216.436 73.8021C216.086 73.4831 215.911 73.0292 215.911 72.4406C215.911 71.1797 216.92 70.5189 218.936 70.4582L219.996 70.424V70.0366C219.996 69.5467 219.89 69.1859 219.677 68.9543C219.468 68.7188 219.132 68.6011 218.669 68.6011C218.148 68.6011 217.56 68.7606 216.903 69.0796L216.612 68.3561C216.92 68.189 217.256 68.058 217.62 67.9631C217.989 67.8681 218.357 67.8206 218.726 67.8206C219.47 67.8206 220.021 67.9858 220.378 68.3162C220.738 68.6466 220.919 69.1764 220.919 69.9056V74.1667H220.218ZM218.082 73.5002C218.671 73.5002 219.132 73.3388 219.466 73.016C219.804 72.6931 219.973 72.2412 219.973 71.6602V71.0962L219.028 71.1361C218.276 71.1627 217.732 71.2804 217.398 71.4893C217.068 71.6943 216.903 72.0152 216.903 72.452C216.903 72.7938 217.005 73.0539 217.21 73.2324C217.419 73.4109 217.71 73.5002 218.082 73.5002Z" fill="white"/>
<path d="M225.721 67.8092C225.998 67.8092 226.247 67.832 226.467 67.8776L226.336 68.7549C226.078 68.6979 225.85 68.6694 225.653 68.6694C225.148 68.6694 224.715 68.8745 224.354 69.2847C223.997 69.6948 223.818 70.2056 223.818 70.8171V74.1667H222.873V67.9232H223.653L223.761 69.0796H223.807C224.039 68.6732 224.318 68.3599 224.644 68.1396C224.971 67.9194 225.33 67.8092 225.721 67.8092Z" fill="white"/>
<path d="M226.644 67.9232H227.658L229.025 71.4836C229.325 72.2963 229.511 72.883 229.583 73.2438H229.629C229.678 73.0501 229.781 72.7197 229.937 72.2526C230.096 71.7817 230.613 70.3385 231.486 67.9232H232.5L229.817 75.0326C229.551 75.7351 229.24 76.2326 228.883 76.5251C228.529 76.8213 228.095 76.9694 227.578 76.9694C227.29 76.9694 227.005 76.9371 226.724 76.8726V76.1149C226.933 76.1605 227.166 76.1833 227.424 76.1833C228.074 76.1833 228.537 75.8187 228.814 75.0895L229.162 74.2008L226.644 67.9232Z" fill="white"/>
<path d="M240.794 73.3293H240.743C240.306 73.9635 239.653 74.2806 238.783 74.2806C237.967 74.2806 237.331 74.0015 236.875 73.4432C236.423 72.8849 236.197 72.0912 236.197 71.062C236.197 70.0328 236.425 69.2334 236.881 68.6637C237.336 68.0941 237.971 67.8092 238.783 67.8092C239.63 67.8092 240.28 68.1169 240.732 68.7321H240.806L240.766 68.2821L240.743 67.8434V65.3027H241.689V74.1667H240.92L240.794 73.3293ZM238.903 73.4888C239.549 73.4888 240.016 73.3141 240.304 72.9647C240.597 72.6115 240.743 72.0437 240.743 71.2614V71.062C240.743 70.1771 240.595 69.5467 240.299 69.1707C240.006 68.791 239.537 68.6011 238.892 68.6011C238.337 68.6011 237.912 68.8175 237.616 69.2505C237.323 69.6796 237.177 70.2873 237.177 71.0734C237.177 71.8709 237.323 72.4729 237.616 72.8792C237.908 73.2856 238.337 73.4888 238.903 73.4888Z" fill="white"/>
<path d="M249.089 71.0392C249.089 72.057 248.832 72.8526 248.32 73.4261C247.807 73.9958 247.099 74.2806 246.195 74.2806C245.636 74.2806 245.141 74.1496 244.708 73.8875C244.275 73.6255 243.941 73.2495 243.705 72.7596C243.47 72.2697 243.352 71.6962 243.352 71.0392C243.352 70.0214 243.607 69.2296 244.115 68.6637C244.624 68.0941 245.331 67.8092 246.235 67.8092C247.108 67.8092 247.801 68.0998 248.314 68.6808C248.83 69.2619 249.089 70.048 249.089 71.0392ZM244.332 71.0392C244.332 71.8368 244.491 72.4444 244.81 72.8621C245.129 73.2799 245.598 73.4888 246.217 73.4888C246.836 73.4888 247.306 73.2818 247.625 72.8678C247.947 72.4501 248.109 71.8405 248.109 71.0392C248.109 70.2455 247.947 69.6436 247.625 69.2334C247.306 68.8194 246.833 68.6125 246.206 68.6125C245.587 68.6125 245.12 68.8156 244.805 69.222C244.489 69.6284 244.332 70.2341 244.332 71.0392Z" fill="white"/>
<path d="M252.791 67.9232H253.805L255.173 71.4836C255.473 72.2963 255.659 72.883 255.731 73.2438H255.776C255.826 73.0501 255.928 72.7197 256.084 72.2526C256.243 71.7817 256.76 70.3385 257.633 67.9232H258.647L255.964 75.0326C255.699 75.7351 255.387 76.2326 255.03 76.5251C254.677 76.8213 254.242 76.9694 253.726 76.9694C253.437 76.9694 253.152 76.9371 252.871 76.8726V76.1149C253.08 76.1605 253.314 76.1833 253.572 76.1833C254.221 76.1833 254.685 75.8187 254.962 75.0895L255.309 74.2008L252.791 67.9232Z" fill="white"/>
<path d="M265.05 71.0392C265.05 72.057 264.794 72.8526 264.281 73.4261C263.769 73.9958 263.06 74.2806 262.157 74.2806C261.598 74.2806 261.103 74.1496 260.67 73.8875C260.237 73.6255 259.903 73.2495 259.667 72.7596C259.432 72.2697 259.314 71.6962 259.314 71.0392C259.314 70.0214 259.568 69.2296 260.077 68.6637C260.586 68.0941 261.293 67.8092 262.196 67.8092C263.07 67.8092 263.763 68.0998 264.276 68.6808C264.792 69.2619 265.05 70.048 265.05 71.0392ZM260.294 71.0392C260.294 71.8368 260.453 72.4444 260.772 72.8621C261.091 73.2799 261.56 73.4888 262.179 73.4888C262.798 73.4888 263.267 73.2818 263.586 72.8678C263.909 72.4501 264.071 71.8405 264.071 71.0392C264.071 70.2455 263.909 69.6436 263.586 69.2334C263.267 68.8194 262.795 68.6125 262.168 68.6125C261.549 68.6125 261.082 68.8156 260.767 69.222C260.451 69.6284 260.294 70.2341 260.294 71.0392Z" fill="white"/>
<path d="M267.603 67.9232V71.9735C267.603 72.4824 267.718 72.8621 267.95 73.1128C268.182 73.3634 268.544 73.4888 269.038 73.4888C269.691 73.4888 270.168 73.3103 270.468 72.9533C270.772 72.5963 270.924 72.0133 270.924 71.2044V67.9232H271.869V74.1667H271.089L270.952 73.3293H270.901C270.707 73.6369 270.438 73.8723 270.092 74.0356C269.75 74.1989 269.359 74.2806 268.918 74.2806C268.159 74.2806 267.589 74.1002 267.209 73.7394C266.834 73.3786 266.646 72.8014 266.646 72.0076V67.9232H267.603Z" fill="white"/>
<path d="M282.009 74.1667L280.864 70.5037C280.792 70.2797 280.657 69.7708 280.46 68.9771H280.414C280.262 69.6417 280.129 70.1544 280.015 70.5151L278.836 74.1667H277.743L276.039 67.9232H277.03C277.433 69.4916 277.739 70.686 277.948 71.5063C278.16 72.3267 278.282 72.8792 278.312 73.1641H278.358C278.4 72.9476 278.466 72.6685 278.557 72.3267C278.652 71.9811 278.734 71.7076 278.802 71.5063L279.947 67.9232H280.973L282.089 71.5063C282.302 72.1596 282.446 72.7083 282.522 73.1527H282.568C282.583 73.016 282.623 72.8052 282.687 72.5203C282.756 72.2355 283.152 70.7031 283.878 67.9232H284.858L283.132 74.1667H282.009Z" fill="white"/>
<path d="M289.831 74.1667L289.643 73.278H289.597C289.286 73.6692 288.974 73.935 288.663 74.0755C288.355 74.2122 287.97 74.2806 287.507 74.2806C286.887 74.2806 286.401 74.1211 286.048 73.8021C285.699 73.4831 285.524 73.0292 285.524 72.4406C285.524 71.1797 286.532 70.5189 288.549 70.4582L289.609 70.424V70.0366C289.609 69.5467 289.502 69.1859 289.29 68.9543C289.081 68.7188 288.745 68.6011 288.281 68.6011C287.761 68.6011 287.172 68.7606 286.515 69.0796L286.225 68.3561C286.532 68.189 286.868 68.058 287.233 67.9631C287.601 67.8681 287.97 67.8206 288.338 67.8206C289.083 67.8206 289.633 67.9858 289.99 68.3162C290.351 68.6466 290.531 69.1764 290.531 69.9056V74.1667H289.831ZM287.695 73.5002C288.283 73.5002 288.745 73.3388 289.079 73.016C289.417 72.6931 289.586 72.2412 289.586 71.6602V71.0962L288.64 71.1361C287.888 71.1627 287.345 71.2804 287.011 71.4893C286.681 71.6943 286.515 72.0152 286.515 72.452C286.515 72.7938 286.618 73.0539 286.823 73.2324C287.032 73.4109 287.322 73.5002 287.695 73.5002Z" fill="white"/>
<path d="M296.758 74.1667V70.1278C296.758 69.6189 296.642 69.2391 296.41 68.9884C296.179 68.7378 295.816 68.6125 295.322 68.6125C294.669 68.6125 294.191 68.7891 293.887 69.1423C293.583 69.4954 293.431 70.0784 293.431 70.8911V74.1667H292.485V67.9232H293.254L293.408 68.7777H293.454C293.647 68.4701 293.919 68.2327 294.268 68.0656C294.618 67.8947 295.007 67.8092 295.436 67.8092C296.188 67.8092 296.754 67.9915 297.134 68.3561C297.514 68.7169 297.703 69.2961 297.703 70.0936V74.1667H296.758Z" fill="white"/>
<path d="M301.668 73.5002C301.835 73.5002 301.997 73.4888 302.153 73.466C302.308 73.4394 302.432 73.4128 302.523 73.3862V74.1097C302.42 74.1591 302.268 74.1989 302.067 74.2293C301.87 74.2635 301.691 74.2806 301.532 74.2806C300.324 74.2806 299.72 73.6445 299.72 72.3722V68.658H298.826V68.2023L299.72 67.8092L300.119 66.4762H300.666V67.9232H302.477V68.658H300.666V72.3324C300.666 72.7083 300.755 72.997 300.933 73.1982C301.112 73.3995 301.357 73.5002 301.668 73.5002Z" fill="white"/>
<path d="M308.823 73.5002C308.99 73.5002 309.152 73.4888 309.307 73.466C309.463 73.4394 309.587 73.4128 309.678 73.3862V74.1097C309.575 74.1591 309.423 74.1989 309.222 74.2293C309.025 74.2635 308.846 74.2806 308.687 74.2806C307.479 74.2806 306.875 73.6445 306.875 72.3722V68.658H305.981V68.2023L306.875 67.8092L307.274 66.4762H307.821V67.9232H309.632V68.658H307.821V72.3324C307.821 72.7083 307.91 72.997 308.088 73.1982C308.267 73.3995 308.512 73.5002 308.823 73.5002Z" fill="white"/>
<path d="M316.32 71.0392C316.32 72.057 316.064 72.8526 315.551 73.4261C315.038 73.9958 314.33 74.2806 313.426 74.2806C312.868 74.2806 312.372 74.1496 311.939 73.8875C311.506 73.6255 311.172 73.2495 310.937 72.7596C310.701 72.2697 310.584 71.6962 310.584 71.0392C310.584 70.0214 310.838 69.2296 311.347 68.6637C311.856 68.0941 312.562 67.8092 313.466 67.8092C314.339 67.8092 315.033 68.0998 315.545 68.6808C316.062 69.2619 316.32 70.048 316.32 71.0392ZM311.563 71.0392C311.563 71.8368 311.723 72.4444 312.042 72.8621C312.361 73.2799 312.83 73.4888 313.449 73.4888C314.068 73.4888 314.537 73.2818 314.856 72.8678C315.179 72.4501 315.34 71.8405 315.34 71.0392C315.34 70.2455 315.179 69.6436 314.856 69.2334C314.537 68.8194 314.064 68.6125 313.438 68.6125C312.818 68.6125 312.351 68.8156 312.036 69.222C311.721 69.6284 311.563 70.2341 311.563 71.0392Z" fill="white"/>
<path d="M325.042 72.4634C325.042 73.0444 324.825 73.4926 324.392 73.8078C323.959 74.123 323.352 74.2806 322.569 74.2806C321.741 74.2806 321.096 74.1496 320.632 73.8875V73.0103C320.932 73.1622 321.253 73.2818 321.595 73.3691C321.941 73.4565 322.273 73.5002 322.592 73.5002C323.086 73.5002 323.465 73.4223 323.731 73.2666C323.997 73.1071 324.13 72.8659 324.13 72.5431C324.13 72.3001 324.024 72.0931 323.811 71.9222C323.602 71.7475 323.192 71.5424 322.581 71.307C322 71.0905 321.586 70.9025 321.339 70.743C321.096 70.5797 320.913 70.3955 320.792 70.1904C320.674 69.9854 320.615 69.7404 320.615 69.4556C320.615 68.9467 320.822 68.546 321.236 68.2536C321.65 67.9574 322.218 67.8092 322.939 67.8092C323.612 67.8092 324.269 67.946 324.91 68.2194L324.574 68.9884C323.948 68.7302 323.38 68.6011 322.871 68.6011C322.423 68.6011 322.085 68.6713 321.857 68.8118C321.629 68.9524 321.515 69.1461 321.515 69.3929C321.515 69.56 321.557 69.7024 321.641 69.8201C321.728 69.9379 321.867 70.0499 322.056 70.1562C322.246 70.2626 322.611 70.4164 323.15 70.6177C323.891 70.8873 324.39 71.1589 324.648 71.4323C324.91 71.7057 325.042 72.0494 325.042 72.4634Z" fill="white"/>
<path d="M330.425 74.1667L330.237 73.278H330.191C329.88 73.6692 329.568 73.935 329.257 74.0755C328.949 74.2122 328.564 74.2806 328.101 74.2806C327.482 74.2806 326.995 74.1211 326.642 73.8021C326.293 73.4831 326.118 73.0292 326.118 72.4406C326.118 71.1797 327.126 70.5189 329.143 70.4582L330.203 70.424V70.0366C330.203 69.5467 330.096 69.1859 329.884 68.9543C329.675 68.7188 329.339 68.6011 328.875 68.6011C328.355 68.6011 327.766 68.7606 327.109 69.0796L326.819 68.3561C327.126 68.189 327.463 68.058 327.827 67.9631C328.196 67.8681 328.564 67.8206 328.932 67.8206C329.677 67.8206 330.227 67.9858 330.584 68.3162C330.945 68.6466 331.126 69.1764 331.126 69.9056V74.1667H330.425ZM328.289 73.5002C328.877 73.5002 329.339 73.3388 329.673 73.016C330.011 72.6931 330.18 72.2412 330.18 71.6602V71.0962L329.234 71.1361C328.482 71.1627 327.939 71.2804 327.605 71.4893C327.275 71.6943 327.109 72.0152 327.109 72.452C327.109 72.7938 327.212 73.0539 327.417 73.2324C327.626 73.4109 327.916 73.5002 328.289 73.5002Z" fill="white"/>
<path d="M334.447 74.1667L332.077 67.9232H333.091L334.435 71.626C334.739 72.4919 334.918 73.0539 334.971 73.3122H335.016C335.058 73.1109 335.189 72.695 335.409 72.0646C335.633 71.4304 336.133 70.0499 336.908 67.9232H337.922L335.552 74.1667H334.447Z" fill="white"/>
<path d="M341.562 74.2806C340.639 74.2806 339.91 73.9996 339.374 73.4375C338.843 72.8754 338.577 72.095 338.577 71.0962C338.577 70.0898 338.824 69.2904 339.317 68.6979C339.815 68.1055 340.481 67.8092 341.317 67.8092C342.099 67.8092 342.718 68.0675 343.174 68.584C343.63 69.0967 343.857 69.7746 343.857 70.6177V71.2158H339.556C339.575 71.9488 339.76 72.5052 340.109 72.8849C340.462 73.2647 340.958 73.4546 341.596 73.4546C342.268 73.4546 342.933 73.3141 343.59 73.033V73.8761C343.256 74.0205 342.938 74.123 342.638 74.1838C342.342 74.2483 341.983 74.2806 341.562 74.2806ZM341.305 68.6011C340.804 68.6011 340.403 68.7644 340.103 69.091C339.807 69.4176 339.632 69.8695 339.579 70.4468H342.843C342.843 69.8505 342.711 69.3948 342.445 69.0796C342.179 68.7606 341.799 68.6011 341.305 68.6011Z" fill="white"/>
<path d="M350.522 73.5002C350.69 73.5002 350.851 73.4888 351.007 73.466C351.162 73.4394 351.286 73.4128 351.377 73.3862V74.1097C351.274 74.1591 351.123 74.1989 350.921 74.2293C350.724 74.2635 350.545 74.2806 350.386 74.2806C349.178 74.2806 348.574 73.6445 348.574 72.3722V68.658H347.68V68.2023L348.574 67.8092L348.973 66.4762H349.52V67.9232H351.331V68.658H349.52V72.3324C349.52 72.7083 349.609 72.997 349.788 73.1982C349.966 73.3995 350.211 73.5002 350.522 73.5002Z" fill="white"/>
<path d="M356.903 74.1667V70.1278C356.903 69.6189 356.787 69.2391 356.555 68.9884C356.324 68.7378 355.961 68.6125 355.467 68.6125C354.81 68.6125 354.33 68.791 354.026 69.1479C353.726 69.5049 353.576 70.0898 353.576 70.9025V74.1667H352.63V65.3027H353.576V67.9858C353.576 68.3086 353.561 68.5764 353.53 68.7891H353.587C353.773 68.489 354.037 68.2536 354.379 68.0827C354.725 67.908 355.118 67.8206 355.558 67.8206C356.322 67.8206 356.893 68.0029 357.273 68.3675C357.657 68.7283 357.848 69.3037 357.848 70.0936V74.1667H356.903Z" fill="white"/>
<path d="M360.742 74.1667H359.797V67.9232H360.742V74.1667ZM359.717 66.2313C359.717 66.0148 359.77 65.8572 359.876 65.7585C359.983 65.6559 360.116 65.6047 360.275 65.6047C360.427 65.6047 360.558 65.6559 360.668 65.7585C360.778 65.861 360.833 66.0186 360.833 66.2313C360.833 66.444 360.778 66.6035 360.668 66.7098C360.558 66.8123 360.427 66.8636 360.275 66.8636C360.116 66.8636 359.983 66.8123 359.876 66.7098C359.77 66.6035 359.717 66.444 359.717 66.2313Z" fill="white"/>
<path d="M366.775 72.4634C366.775 73.0444 366.558 73.4926 366.126 73.8078C365.693 74.123 365.085 74.2806 364.303 74.2806C363.475 74.2806 362.829 74.1496 362.366 73.8875V73.0103C362.666 73.1622 362.987 73.2818 363.328 73.3691C363.674 73.4565 364.006 73.5002 364.325 73.5002C364.819 73.5002 365.199 73.4223 365.465 73.2666C365.731 73.1071 365.863 72.8659 365.863 72.5431C365.863 72.3001 365.757 72.0931 365.544 71.9222C365.336 71.7475 364.925 71.5424 364.314 71.307C363.733 71.0905 363.319 70.9025 363.072 70.743C362.829 70.5797 362.647 70.3955 362.525 70.1904C362.408 69.9854 362.349 69.7404 362.349 69.4556C362.349 68.9467 362.556 68.546 362.97 68.2536C363.384 67.9574 363.951 67.8092 364.673 67.8092C365.345 67.8092 366.002 67.946 366.644 68.2194L366.308 68.9884C365.681 68.7302 365.113 68.6011 364.605 68.6011C364.156 68.6011 363.818 68.6713 363.59 68.8118C363.363 68.9524 363.249 69.1461 363.249 69.3929C363.249 69.56 363.29 69.7024 363.374 69.8201C363.461 69.9379 363.6 70.0499 363.79 70.1562C363.98 70.2626 364.344 70.4164 364.884 70.6177C365.624 70.8873 366.124 71.1589 366.382 71.4323C366.644 71.7057 366.775 72.0494 366.775 72.4634Z" fill="white"/>
<path d="M374.255 74.2806C373.848 74.2806 373.476 74.2065 373.138 74.0584C372.804 73.9065 372.523 73.6749 372.295 73.3634H372.227C372.272 73.728 372.295 74.0736 372.295 74.4002V76.9694H371.349V67.9232H372.118L372.249 68.7777H372.295C372.538 68.4359 372.821 68.189 373.144 68.0371C373.467 67.8852 373.837 67.8092 374.255 67.8092C375.082 67.8092 375.721 68.0922 376.169 68.658C376.621 69.2239 376.847 70.0176 376.847 71.0392C376.847 72.0646 376.617 72.8621 376.157 73.4318C375.702 73.9977 375.067 74.2806 374.255 74.2806ZM374.118 68.6125C373.48 68.6125 373.018 68.7891 372.734 69.1423C372.449 69.4954 372.303 70.0575 372.295 70.8285V71.0392C372.295 71.9165 372.441 72.545 372.734 72.9248C373.026 73.3008 373.495 73.4888 374.141 73.4888C374.68 73.4888 375.101 73.2704 375.405 72.8337C375.713 72.3969 375.867 71.795 375.867 71.0278C375.867 70.2493 375.713 69.653 375.405 69.2391C375.101 68.8213 374.672 68.6125 374.118 68.6125Z" fill="white"/>
<path d="M382.777 74.1667V70.1278C382.777 69.6189 382.661 69.2391 382.429 68.9884C382.198 68.7378 381.835 68.6125 381.341 68.6125C380.684 68.6125 380.204 68.791 379.9 69.1479C379.6 69.5049 379.45 70.0898 379.45 70.9025V74.1667H378.504V65.3027H379.45V67.9858C379.45 68.3086 379.435 68.5764 379.404 68.7891H379.461C379.647 68.489 379.911 68.2536 380.253 68.0827C380.599 67.908 380.992 67.8206 381.432 67.8206C382.196 67.8206 382.767 68.0029 383.147 68.3675C383.531 68.7283 383.722 69.3037 383.722 70.0936V74.1667H382.777Z" fill="white"/>
<path d="M391.06 71.0392C391.06 72.057 390.803 72.8526 390.291 73.4261C389.778 73.9958 389.07 74.2806 388.166 74.2806C387.607 74.2806 387.112 74.1496 386.679 73.8875C386.246 73.6255 385.912 73.2495 385.676 72.7596C385.441 72.2697 385.323 71.6962 385.323 71.0392C385.323 70.0214 385.578 69.2296 386.086 68.6637C386.595 68.0941 387.302 67.8092 388.206 67.8092C389.079 67.8092 389.772 68.0998 390.285 68.6808C390.801 69.2619 391.06 70.048 391.06 71.0392ZM386.303 71.0392C386.303 71.8368 386.462 72.4444 386.781 72.8621C387.1 73.2799 387.569 73.4888 388.188 73.4888C388.808 73.4888 389.277 73.2818 389.596 72.8678C389.918 72.4501 390.08 71.8405 390.08 71.0392C390.08 70.2455 389.918 69.6436 389.596 69.2334C389.277 68.8194 388.804 68.6125 388.177 68.6125C387.558 68.6125 387.091 68.8156 386.776 69.222C386.461 69.6284 386.303 70.2341 386.303 71.0392Z" fill="white"/>
<path d="M394.74 73.5002C394.907 73.5002 395.068 73.4888 395.224 73.466C395.38 73.4394 395.503 73.4128 395.594 73.3862V74.1097C395.492 74.1591 395.34 74.1989 395.138 74.2293C394.941 74.2635 394.762 74.2806 394.603 74.2806C393.395 74.2806 392.791 73.6445 392.791 72.3722V68.658H391.897V68.2023L392.791 67.8092L393.19 66.4762H393.737V67.9232H395.549V68.658H393.737V72.3324C393.737 72.7083 393.826 72.997 394.005 73.1982C394.183 73.3995 394.428 73.5002 394.74 73.5002Z" fill="white"/>
<path d="M402.236 71.0392C402.236 72.057 401.98 72.8526 401.467 73.4261C400.955 73.9958 400.246 74.2806 399.342 74.2806C398.784 74.2806 398.289 74.1496 397.856 73.8875C397.423 73.6255 397.089 73.2495 396.853 72.7596C396.618 72.2697 396.5 71.6962 396.5 71.0392C396.5 70.0214 396.754 69.2296 397.263 68.6637C397.772 68.0941 398.478 67.8092 399.382 67.8092C400.256 67.8092 400.949 68.0998 401.462 68.6808C401.978 69.2619 402.236 70.048 402.236 71.0392ZM397.48 71.0392C397.48 71.8368 397.639 72.4444 397.958 72.8621C398.277 73.2799 398.746 73.4888 399.365 73.4888C399.984 73.4888 400.453 73.2818 400.772 72.8678C401.095 72.4501 401.257 71.8405 401.257 71.0392C401.257 70.2455 401.095 69.6436 400.772 69.2334C400.453 68.8194 399.98 68.6125 399.354 68.6125C398.735 68.6125 398.268 68.8156 397.952 69.222C397.637 69.6284 397.48 70.2341 397.48 71.0392Z" fill="white"/>
<path d="M407.876 74.1667H406.93V67.9232H407.876V74.1667ZM406.851 66.2313C406.851 66.0148 406.904 65.8572 407.01 65.7585C407.116 65.6559 407.249 65.6047 407.409 65.6047C407.561 65.6047 407.692 65.6559 407.802 65.7585C407.912 65.861 407.967 66.0186 407.967 66.2313C407.967 66.444 407.912 66.6035 407.802 66.7098C407.692 66.8123 407.561 66.8636 407.409 66.8636C407.249 66.8636 407.116 66.8123 407.01 66.7098C406.904 66.6035 406.851 66.444 406.851 66.2313Z" fill="white"/>
<path d="M414.154 74.1667V70.1278C414.154 69.6189 414.038 69.2391 413.806 68.9884C413.575 68.7378 413.212 68.6125 412.718 68.6125C412.065 68.6125 411.586 68.7891 411.283 69.1423C410.979 69.4954 410.827 70.0784 410.827 70.8911V74.1667H409.881V67.9232H410.65L410.804 68.7777H410.85C411.043 68.4701 411.315 68.2327 411.664 68.0656C412.014 67.8947 412.403 67.8092 412.832 67.8092C413.584 67.8092 414.15 67.9915 414.53 68.3561C414.909 68.7169 415.099 69.2961 415.099 70.0936V74.1667H414.154Z" fill="white"/>
<path d="M417.691 71.8709V71.5633C417.691 71.119 417.76 70.7544 417.896 70.4696C418.033 70.1809 418.288 69.8771 418.66 69.5581C419.176 69.1214 419.501 68.7929 419.634 68.5726C419.771 68.3523 419.839 68.0865 419.839 67.7751C419.839 67.3877 419.714 67.0896 419.463 66.8807C419.216 66.668 418.859 66.5617 418.392 66.5617C418.092 66.5617 417.8 66.5978 417.515 66.6699C417.23 66.7383 416.903 66.8655 416.535 67.0516L416.199 66.2826C416.917 65.9066 417.667 65.7186 418.449 65.7186C419.174 65.7186 419.738 65.8971 420.141 66.2541C420.543 66.6111 420.745 67.1143 420.745 67.7637C420.745 68.0409 420.707 68.2859 420.631 68.4985C420.559 68.7074 420.45 68.9068 420.306 69.0967C420.162 69.2828 419.85 69.5847 419.372 70.0024C418.988 70.329 418.734 70.6006 418.608 70.8171C418.487 71.0335 418.426 71.3222 418.426 71.6829V71.8709H417.691ZM417.412 73.5628C417.412 73.0463 417.64 72.7881 418.096 72.7881C418.316 72.7881 418.485 72.8545 418.603 72.9875C418.724 73.1204 418.785 73.3122 418.785 73.5628C418.785 73.8059 418.724 73.9958 418.603 74.1325C418.481 74.2654 418.312 74.3319 418.096 74.3319C417.898 74.3319 417.735 74.273 417.606 74.1553C417.477 74.0337 417.412 73.8363 417.412 73.5628Z" fill="white"/>
<path d="M107.406 142.5H106.484V136.564C106.484 136.071 106.499 135.603 106.529 135.163C106.449 135.243 106.36 135.326 106.261 135.413C106.163 135.501 105.711 135.871 104.906 136.524L104.404 135.875L106.609 134.172H107.406V142.5Z" fill="white"/>
<path d="M110.876 141.896C110.876 141.642 110.933 141.45 111.047 141.321C111.164 141.188 111.331 141.122 111.548 141.122C111.768 141.122 111.939 141.188 112.061 141.321C112.186 141.45 112.249 141.642 112.249 141.896C112.249 142.143 112.186 142.333 112.061 142.466C111.935 142.599 111.764 142.665 111.548 142.665C111.354 142.665 111.193 142.606 111.064 142.489C110.938 142.367 110.876 142.17 110.876 141.896Z" fill="white"/>
<path d="M123.944 138.256C123.944 139.631 123.57 140.683 122.821 141.412C122.077 142.137 121.004 142.5 119.603 142.5H117.296V134.172H119.848C121.143 134.172 122.149 134.531 122.867 135.248C123.585 135.966 123.944 136.969 123.944 138.256ZM122.918 138.29C122.918 137.204 122.645 136.386 122.098 135.835C121.555 135.284 120.746 135.009 119.671 135.009H118.264V141.663H119.443C120.598 141.663 121.466 141.38 122.047 140.814C122.628 140.244 122.918 139.403 122.918 138.29Z" fill="white"/>
<path d="M131.053 139.373C131.053 140.39 130.797 141.186 130.284 141.76C129.771 142.329 129.063 142.614 128.159 142.614C127.601 142.614 127.105 142.483 126.672 142.221C126.239 141.959 125.905 141.583 125.67 141.093C125.434 140.603 125.317 140.03 125.317 139.373C125.317 138.355 125.571 137.563 126.08 136.997C126.589 136.427 127.295 136.143 128.199 136.143C129.073 136.143 129.766 136.433 130.278 137.014C130.795 137.595 131.053 138.381 131.053 139.373ZM126.296 139.373C126.296 140.17 126.456 140.778 126.775 141.196C127.094 141.613 127.563 141.822 128.182 141.822C128.801 141.822 129.27 141.615 129.589 141.201C129.912 140.784 130.073 140.174 130.073 139.373C130.073 138.579 129.912 137.977 129.589 137.567C129.27 137.153 128.797 136.946 128.171 136.946C127.552 136.946 127.084 137.149 126.769 137.555C126.454 137.962 126.296 138.568 126.296 139.373Z" fill="white"/>
<path d="M137.826 136.257V136.855L136.67 136.991C136.776 137.124 136.871 137.299 136.955 137.516C137.038 137.728 137.08 137.969 137.08 138.239C137.08 138.85 136.871 139.338 136.453 139.703C136.036 140.068 135.462 140.25 134.733 140.25C134.547 140.25 134.372 140.235 134.209 140.204C133.806 140.417 133.605 140.685 133.605 141.008C133.605 141.178 133.675 141.306 133.816 141.389C133.956 141.469 134.198 141.509 134.539 141.509H135.645C136.321 141.509 136.839 141.651 137.2 141.936C137.564 142.221 137.747 142.635 137.747 143.178C137.747 143.869 137.469 144.395 136.915 144.756C136.36 145.121 135.551 145.303 134.488 145.303C133.672 145.303 133.041 145.151 132.597 144.847C132.156 144.543 131.936 144.114 131.936 143.56C131.936 143.18 132.058 142.851 132.301 142.574C132.544 142.297 132.885 142.109 133.326 142.01C133.167 141.938 133.032 141.826 132.922 141.674C132.815 141.522 132.762 141.346 132.762 141.144C132.762 140.916 132.823 140.717 132.944 140.546C133.066 140.375 133.258 140.21 133.52 140.051C133.197 139.918 132.933 139.692 132.728 139.373C132.527 139.054 132.426 138.689 132.426 138.279C132.426 137.595 132.631 137.069 133.041 136.701C133.451 136.329 134.032 136.143 134.784 136.143C135.111 136.143 135.405 136.181 135.667 136.257H137.826ZM132.847 143.548C132.847 143.886 132.99 144.143 133.275 144.317C133.56 144.492 133.968 144.579 134.5 144.579C135.293 144.579 135.88 144.46 136.26 144.22C136.643 143.985 136.835 143.664 136.835 143.258C136.835 142.92 136.731 142.684 136.522 142.551C136.313 142.422 135.92 142.358 135.343 142.358H134.209C133.78 142.358 133.446 142.46 133.206 142.665C132.967 142.87 132.847 143.165 132.847 143.548ZM133.36 138.256C133.36 138.693 133.484 139.023 133.73 139.247C133.977 139.471 134.321 139.583 134.762 139.583C135.684 139.583 136.146 139.135 136.146 138.239C136.146 137.301 135.679 136.832 134.744 136.832C134.3 136.832 133.958 136.952 133.719 137.191C133.48 137.43 133.36 137.785 133.36 138.256Z" fill="white"/>
<path d="M145.967 142.5L143.141 135.117H143.096C143.149 135.702 143.175 136.397 143.175 137.202V142.5H142.281V134.172H143.739L146.377 141.042H146.423L149.083 134.172H150.53V142.5H149.561V137.134C149.561 136.519 149.588 135.85 149.641 135.129H149.596L146.747 142.5H145.967Z" fill="white"/>
<path d="M155.315 142.614C154.392 142.614 153.663 142.333 153.127 141.771C152.596 141.209 152.33 140.428 152.33 139.43C152.33 138.423 152.577 137.624 153.07 137.031C153.568 136.439 154.234 136.143 155.07 136.143C155.852 136.143 156.471 136.401 156.927 136.917C157.383 137.43 157.611 138.108 157.611 138.951V139.549H153.31C153.329 140.282 153.513 140.839 153.862 141.218C154.215 141.598 154.711 141.788 155.349 141.788C156.021 141.788 156.686 141.647 157.343 141.366V142.21C157.009 142.354 156.692 142.456 156.392 142.517C156.095 142.582 155.736 142.614 155.315 142.614ZM155.059 136.934C154.557 136.934 154.157 137.098 153.857 137.424C153.56 137.751 153.386 138.203 153.333 138.78H156.597C156.597 138.184 156.464 137.728 156.198 137.413C155.932 137.094 155.552 136.934 155.059 136.934Z" fill="white"/>
<path d="M167.187 142.5V138.438C167.187 137.941 167.08 137.569 166.868 137.322C166.655 137.071 166.325 136.946 165.876 136.946C165.288 136.946 164.853 137.115 164.572 137.453C164.291 137.791 164.15 138.311 164.15 139.014V142.5H163.205V138.438C163.205 137.941 163.098 137.569 162.886 137.322C162.673 137.071 162.341 136.946 161.889 136.946C161.296 136.946 160.862 137.124 160.584 137.481C160.311 137.835 160.174 138.416 160.174 139.225V142.5H159.229V136.257H159.998L160.151 137.111H160.197C160.375 136.807 160.626 136.57 160.949 136.399C161.276 136.228 161.64 136.143 162.043 136.143C163.019 136.143 163.657 136.496 163.957 137.202H164.002C164.188 136.876 164.458 136.617 164.811 136.427C165.164 136.238 165.567 136.143 166.019 136.143C166.725 136.143 167.253 136.325 167.603 136.69C167.956 137.05 168.132 137.629 168.132 138.427V142.5H167.187Z" fill="white"/>
<path d="M172.724 142.614C171.801 142.614 171.072 142.333 170.536 141.771C170.005 141.209 169.739 140.428 169.739 139.43C169.739 138.423 169.986 137.624 170.479 137.031C170.977 136.439 171.643 136.143 172.479 136.143C173.261 136.143 173.88 136.401 174.336 136.917C174.792 137.43 175.02 138.108 175.02 138.951V139.549H170.719C170.738 140.282 170.922 140.839 171.271 141.218C171.624 141.598 172.12 141.788 172.758 141.788C173.43 141.788 174.095 141.647 174.752 141.366V142.21C174.418 142.354 174.1 142.456 173.8 142.517C173.504 142.582 173.145 142.614 172.724 142.614ZM172.467 136.934C171.966 136.934 171.565 137.098 171.265 137.424C170.969 137.751 170.795 138.203 170.741 138.78H174.006C174.006 138.184 173.873 137.728 173.607 137.413C173.341 137.094 172.961 136.934 172.467 136.934Z" fill="white"/>
<path d="M180.665 140.797C180.665 141.378 180.448 141.826 180.015 142.141C179.583 142.456 178.975 142.614 178.193 142.614C177.365 142.614 176.719 142.483 176.256 142.221V141.344C176.556 141.496 176.877 141.615 177.218 141.703C177.564 141.79 177.896 141.834 178.215 141.834C178.709 141.834 179.089 141.756 179.355 141.6C179.62 141.441 179.753 141.199 179.753 140.877C179.753 140.633 179.647 140.427 179.434 140.256C179.226 140.081 178.815 139.876 178.204 139.64C177.623 139.424 177.209 139.236 176.962 139.076C176.719 138.913 176.537 138.729 176.415 138.524C176.297 138.319 176.239 138.074 176.239 137.789C176.239 137.28 176.446 136.879 176.86 136.587C177.273 136.291 177.841 136.143 178.563 136.143C179.235 136.143 179.892 136.279 180.534 136.553L180.198 137.322C179.571 137.064 179.003 136.934 178.494 136.934C178.046 136.934 177.708 137.005 177.48 137.145C177.253 137.286 177.139 137.479 177.139 137.726C177.139 137.893 177.18 138.036 177.264 138.154C177.351 138.271 177.49 138.383 177.68 138.49C177.87 138.596 178.234 138.75 178.774 138.951C179.514 139.221 180.014 139.492 180.272 139.766C180.534 140.039 180.665 140.383 180.665 140.797Z" fill="white"/>
<path d="M109.377 162.5H103.903V161.685L106.096 159.481C106.765 158.805 107.205 158.322 107.418 158.034C107.63 157.745 107.79 157.464 107.896 157.191C108.003 156.917 108.056 156.623 108.056 156.308C108.056 155.863 107.921 155.512 107.651 155.254C107.382 154.992 107.008 154.861 106.529 154.861C106.184 154.861 105.855 154.918 105.544 155.032C105.236 155.146 104.892 155.353 104.513 155.653L104.011 155.009C104.778 154.371 105.614 154.052 106.518 154.052C107.3 154.052 107.913 154.253 108.358 154.656C108.802 155.054 109.024 155.592 109.024 156.268C109.024 156.796 108.876 157.318 108.58 157.834C108.284 158.351 107.729 159.004 106.916 159.794L105.094 161.577V161.623H109.377V162.5Z" fill="white"/>
<path d="M110.876 161.896C110.876 161.642 110.933 161.45 111.047 161.321C111.164 161.188 111.331 161.121 111.548 161.121C111.768 161.121 111.939 161.188 112.061 161.321C112.186 161.45 112.249 161.642 112.249 161.896C112.249 162.143 112.186 162.333 112.061 162.466C111.935 162.599 111.764 162.665 111.548 162.665C111.354 162.665 111.193 162.606 111.064 162.489C110.938 162.367 110.876 162.17 110.876 161.896Z" fill="white"/>
<path d="M118.264 162.5H117.296V154.171H121.938V155.032H118.264V158.079H121.716V158.94H118.264V162.5Z" fill="white"/>
<path d="M128.569 159.372C128.569 160.39 128.313 161.186 127.8 161.759C127.288 162.329 126.579 162.614 125.675 162.614C125.117 162.614 124.622 162.483 124.189 162.221C123.756 161.959 123.421 161.583 123.186 161.093C122.951 160.603 122.833 160.029 122.833 159.372C122.833 158.355 123.087 157.563 123.596 156.997C124.105 156.427 124.811 156.142 125.715 156.142C126.589 156.142 127.282 156.433 127.795 157.014C128.311 157.595 128.569 158.381 128.569 159.372ZM123.813 159.372C123.813 160.17 123.972 160.778 124.291 161.195C124.61 161.613 125.079 161.822 125.698 161.822C126.317 161.822 126.786 161.615 127.105 161.201C127.428 160.783 127.59 160.174 127.59 159.372C127.59 158.579 127.428 157.977 127.105 157.567C126.786 157.153 126.313 156.946 125.687 156.946C125.068 156.946 124.601 157.149 124.285 157.555C123.97 157.962 123.813 158.567 123.813 159.372Z" fill="white"/>
<path d="M135.622 159.372C135.622 160.39 135.365 161.186 134.853 161.759C134.34 162.329 133.632 162.614 132.728 162.614C132.17 162.614 131.674 162.483 131.241 162.221C130.808 161.959 130.474 161.583 130.238 161.093C130.003 160.603 129.885 160.029 129.885 159.372C129.885 158.355 130.14 157.563 130.649 156.997C131.157 156.427 131.864 156.142 132.768 156.142C133.641 156.142 134.334 156.433 134.847 157.014C135.363 157.595 135.622 158.381 135.622 159.372ZM130.865 159.372C130.865 160.17 131.025 160.778 131.344 161.195C131.663 161.613 132.132 161.822 132.751 161.822C133.37 161.822 133.839 161.615 134.158 161.201C134.481 160.783 134.642 160.174 134.642 159.372C134.642 158.579 134.481 157.977 134.158 157.567C133.839 157.153 133.366 156.946 132.739 156.946C132.12 156.946 131.653 157.149 131.338 157.555C131.023 157.962 130.865 158.567 130.865 159.372Z" fill="white"/>
<path d="M141.535 161.663H141.484C141.047 162.297 140.394 162.614 139.524 162.614C138.707 162.614 138.071 162.335 137.616 161.776C137.164 161.218 136.938 160.424 136.938 159.395C136.938 158.366 137.166 157.567 137.621 156.997C138.077 156.427 138.711 156.142 139.524 156.142C140.371 156.142 141.02 156.45 141.472 157.065H141.546L141.506 156.615L141.484 156.177V153.636H142.429V162.5H141.66L141.535 161.663ZM139.644 161.822C140.289 161.822 140.756 161.647 141.045 161.298C141.337 160.945 141.484 160.377 141.484 159.595V159.395C141.484 158.51 141.335 157.88 141.039 157.504C140.747 157.124 140.278 156.934 139.632 156.934C139.078 156.934 138.652 157.151 138.356 157.584C138.064 158.013 137.917 158.621 137.917 159.407C137.917 160.204 138.064 160.806 138.356 161.212C138.649 161.619 139.078 161.822 139.644 161.822Z" fill="white"/>
<path d="M109.554 179.897C109.554 180.501 109.336 180.987 108.899 181.355C108.462 181.72 107.851 181.938 107.065 182.01V183.178H106.284V182.033C105.358 182.014 104.545 181.851 103.846 181.543V180.039C104.176 180.202 104.573 180.347 105.037 180.472C105.504 180.597 105.92 180.671 106.284 180.694V178.928L105.903 178.78C105.151 178.484 104.617 178.163 104.302 177.817C103.99 177.468 103.835 177.037 103.835 176.524C103.835 175.974 104.049 175.522 104.478 175.168C104.911 174.812 105.513 174.595 106.284 174.519V173.648H107.065V174.496C107.934 174.534 108.72 174.709 109.423 175.02L108.888 176.353C108.295 176.11 107.687 175.962 107.065 175.909V177.59C107.805 177.874 108.331 178.121 108.643 178.33C108.958 178.539 109.188 178.769 109.332 179.019C109.48 179.27 109.554 179.562 109.554 179.897ZM107.839 179.982C107.839 179.823 107.775 179.688 107.646 179.578C107.517 179.468 107.323 179.354 107.065 179.236V180.654C107.581 180.567 107.839 180.343 107.839 179.982ZM105.549 176.524C105.549 176.691 105.606 176.83 105.72 176.94C105.838 177.046 106.026 177.157 106.284 177.271V175.932C105.794 176.004 105.549 176.201 105.549 176.524Z" fill="#E5E5E5"/>
<path d="M116.789 182.5H115.051V178.78C115.051 178.321 114.97 177.977 114.806 177.749C114.643 177.517 114.383 177.402 114.026 177.402C113.54 177.402 113.188 177.565 112.972 177.891C112.756 178.214 112.647 178.752 112.647 179.504V182.5H110.91V176.131H112.237L112.471 176.946H112.568C112.761 176.638 113.027 176.407 113.365 176.251C113.707 176.091 114.094 176.012 114.527 176.012C115.268 176.012 115.83 176.213 116.213 176.615C116.597 177.014 116.789 177.591 116.789 178.347V182.5Z" fill="#E5E5E5"/>
<path d="M121.215 177.248C120.847 177.248 120.558 177.365 120.349 177.601C120.14 177.833 120.021 178.163 119.99 178.592H122.428C122.421 178.163 122.309 177.833 122.092 177.601C121.876 177.365 121.583 177.248 121.215 177.248ZM121.46 182.614C120.435 182.614 119.633 182.331 119.056 181.765C118.479 181.199 118.19 180.398 118.19 179.361C118.19 178.294 118.456 177.47 118.988 176.889C119.523 176.304 120.262 176.012 121.204 176.012C122.104 176.012 122.804 176.268 123.306 176.781C123.807 177.293 124.058 178.002 124.058 178.905V179.749H119.95C119.969 180.242 120.116 180.628 120.389 180.905C120.662 181.182 121.046 181.321 121.54 181.321C121.923 181.321 122.286 181.281 122.628 181.201C122.97 181.121 123.327 180.994 123.699 180.82V182.164C123.395 182.316 123.07 182.428 122.725 182.5C122.379 182.576 121.957 182.614 121.46 182.614Z" fill="#E5E5E5"/>
<path d="M130.706 182.5L130.216 180.273L129.555 177.459H129.515L128.353 182.5H126.484L124.673 176.131H126.405L127.139 178.951C127.257 179.456 127.377 180.153 127.498 181.042H127.533C127.548 180.753 127.614 180.295 127.732 179.669L127.823 179.185L128.609 176.131H130.523L131.27 179.185C131.285 179.268 131.308 179.392 131.338 179.555C131.372 179.718 131.404 179.893 131.435 180.079C131.465 180.261 131.492 180.442 131.514 180.62C131.541 180.795 131.556 180.935 131.56 181.042H131.594C131.628 180.768 131.689 180.394 131.777 179.919C131.864 179.441 131.927 179.118 131.965 178.951L132.728 176.131H134.431L132.597 182.5H130.706Z" fill="#E5E5E5"/>
<path d="M135.599 182.5V174.172H137.365V181.042H140.743V182.5H135.599Z" fill="#E5E5E5"/>
<path d="M141.985 174.485C141.985 173.919 142.3 173.636 142.931 173.636C143.561 173.636 143.876 173.919 143.876 174.485C143.876 174.755 143.796 174.965 143.637 175.117C143.481 175.265 143.246 175.339 142.931 175.339C142.3 175.339 141.985 175.055 141.985 174.485ZM143.796 182.5H142.059V176.131H143.796V182.5Z" fill="#E5E5E5"/>
<path d="M149.168 176.012C149.92 176.012 150.509 176.306 150.934 176.895C151.36 177.479 151.572 178.283 151.572 179.304C151.572 180.356 151.352 181.171 150.911 181.748C150.475 182.325 149.878 182.614 149.123 182.614C148.375 182.614 147.788 182.342 147.362 181.799H147.243L146.952 182.5H145.625V173.636H147.362V175.698C147.362 175.96 147.34 176.38 147.294 176.957H147.362C147.769 176.327 148.371 176.012 149.168 176.012ZM148.61 177.402C148.181 177.402 147.868 177.534 147.67 177.8C147.473 178.062 147.37 178.497 147.362 179.105V179.293C147.362 179.976 147.463 180.466 147.664 180.763C147.869 181.059 148.192 181.207 148.633 181.207C148.99 181.207 149.273 181.044 149.482 180.717C149.694 180.387 149.801 179.908 149.801 179.281C149.801 178.655 149.694 178.186 149.482 177.874C149.269 177.559 148.978 177.402 148.61 177.402Z" fill="#E5E5E5"/>
<path d="M156.563 176.012C156.798 176.012 156.994 176.029 157.149 176.063L157.018 177.692C156.878 177.654 156.707 177.635 156.506 177.635C155.951 177.635 155.518 177.778 155.207 178.062C154.899 178.347 154.745 178.746 154.745 179.259V182.5H153.008V176.131H154.324L154.58 177.202H154.666C154.863 176.845 155.129 176.558 155.463 176.342C155.801 176.122 156.168 176.012 156.563 176.012Z" fill="#E5E5E5"/>
<path d="M162.35 182.5L162.014 181.634H161.969C161.676 182.003 161.374 182.259 161.063 182.403C160.755 182.544 160.353 182.614 159.855 182.614C159.244 182.614 158.761 182.439 158.408 182.09C158.059 181.74 157.884 181.243 157.884 180.597C157.884 179.921 158.12 179.424 158.59 179.105C159.065 178.782 159.779 178.604 160.732 178.569L161.838 178.535V178.256C161.838 177.61 161.507 177.288 160.846 177.288C160.337 177.288 159.739 177.441 159.052 177.749L158.477 176.576C159.21 176.192 160.022 176 160.915 176C161.769 176 162.424 176.186 162.88 176.558C163.336 176.931 163.564 177.497 163.564 178.256V182.5H162.35ZM161.838 179.549L161.165 179.572C160.66 179.587 160.284 179.678 160.037 179.845C159.791 180.013 159.667 180.267 159.667 180.609C159.667 181.099 159.948 181.344 160.51 181.344C160.913 181.344 161.234 181.228 161.473 180.996C161.716 180.764 161.838 180.457 161.838 180.073V179.549Z" fill="#E5E5E5"/>
<path d="M168.913 176.012C169.148 176.012 169.344 176.029 169.5 176.063L169.368 177.692C169.228 177.654 169.057 177.635 168.856 177.635C168.301 177.635 167.868 177.778 167.557 178.062C167.249 178.347 167.096 178.746 167.096 179.259V182.5H165.358V176.131H166.674L166.93 177.202H167.016C167.213 176.845 167.479 176.558 167.813 176.342C168.151 176.122 168.518 176.012 168.913 176.012Z" fill="#E5E5E5"/>
<path d="M169.744 176.131H171.647L172.849 179.714C172.952 180.026 173.022 180.394 173.06 180.82H173.094C173.136 180.428 173.218 180.06 173.339 179.714L174.518 176.131H176.381L173.687 183.315C173.44 183.979 173.086 184.477 172.627 184.807C172.171 185.138 171.638 185.303 171.026 185.303C170.726 185.303 170.432 185.27 170.143 185.206V183.827C170.352 183.877 170.58 183.901 170.827 183.901C171.134 183.901 171.402 183.806 171.63 183.617C171.862 183.43 172.042 183.148 172.171 182.768L172.274 182.454L169.744 176.131Z" fill="#E5E5E5"/>
<path d="M186.067 181.121L180.592 178.717V178.159L186.067 175.431V176.279L181.612 178.393L186.067 180.261V181.121Z" fill="#E5E5E5"/>
<path d="M188.625 182.5H187.679V173.636H188.625V182.5Z" fill="#E5E5E5"/>
<path d="M191.576 182.5H190.63V176.257H191.576V182.5ZM190.55 174.565C190.55 174.348 190.603 174.191 190.71 174.092C190.816 173.989 190.949 173.938 191.108 173.938C191.26 173.938 191.391 173.989 191.501 174.092C191.612 174.194 191.667 174.352 191.667 174.565C191.667 174.777 191.612 174.937 191.501 175.043C191.391 175.146 191.26 175.197 191.108 175.197C190.949 175.197 190.816 175.146 190.71 175.043C190.603 174.937 190.55 174.777 190.55 174.565Z" fill="#E5E5E5"/>
<path d="M196.486 176.154C197.306 176.154 197.942 176.435 198.394 176.997C198.85 177.555 199.078 178.347 199.078 179.373C199.078 180.398 198.848 181.196 198.389 181.765C197.933 182.331 197.299 182.614 196.486 182.614C196.08 182.614 195.707 182.54 195.369 182.392C195.035 182.24 194.754 182.008 194.526 181.697H194.458L194.259 182.5H193.581V173.636H194.526V175.789C194.526 176.272 194.511 176.705 194.481 177.088H194.526C194.967 176.465 195.62 176.154 196.486 176.154ZM196.349 176.946C195.704 176.946 195.238 177.132 194.954 177.504C194.669 177.872 194.526 178.495 194.526 179.373C194.526 180.25 194.673 180.878 194.965 181.258C195.257 181.634 195.726 181.822 196.372 181.822C196.953 181.822 197.386 181.611 197.671 181.19C197.956 180.764 198.098 180.155 198.098 179.361C198.098 178.548 197.956 177.943 197.671 177.544C197.386 177.145 196.946 176.946 196.349 176.946Z" fill="#E5E5E5"/>
<path d="M203.584 176.143C203.861 176.143 204.11 176.165 204.33 176.211L204.199 177.088C203.941 177.031 203.713 177.003 203.516 177.003C203.011 177.003 202.578 177.208 202.217 177.618C201.86 178.028 201.681 178.539 201.681 179.15V182.5H200.736V176.257H201.516L201.624 177.413H201.67C201.902 177.007 202.181 176.693 202.507 176.473C202.834 176.253 203.193 176.143 203.584 176.143Z" fill="#E5E5E5"/>
<path d="M209.338 182.5L209.15 181.611H209.104C208.793 182.003 208.481 182.268 208.17 182.409C207.862 182.546 207.477 182.614 207.013 182.614C206.394 182.614 205.908 182.454 205.555 182.135C205.206 181.816 205.031 181.363 205.031 180.774C205.031 179.513 206.039 178.852 208.056 178.792L209.115 178.757V178.37C209.115 177.88 209.009 177.519 208.796 177.288C208.588 177.052 208.251 176.934 207.788 176.934C207.268 176.934 206.679 177.094 206.022 177.413L205.732 176.689C206.039 176.522 206.375 176.391 206.74 176.296C207.108 176.201 207.477 176.154 207.845 176.154C208.589 176.154 209.14 176.319 209.497 176.65C209.858 176.98 210.038 177.51 210.038 178.239V182.5H209.338ZM207.201 181.834C207.79 181.834 208.251 181.672 208.586 181.349C208.924 181.027 209.093 180.575 209.093 179.994V179.43L208.147 179.469C207.395 179.496 206.852 179.614 206.518 179.823C206.187 180.028 206.022 180.349 206.022 180.785C206.022 181.127 206.125 181.387 206.33 181.566C206.539 181.744 206.829 181.834 207.201 181.834Z" fill="#E5E5E5"/>
<path d="M214.84 176.143C215.118 176.143 215.366 176.165 215.587 176.211L215.456 177.088C215.197 177.031 214.97 177.003 214.772 177.003C214.267 177.003 213.834 177.208 213.473 177.618C213.116 178.028 212.938 178.539 212.938 179.15V182.5H211.992V176.257H212.773L212.881 177.413H212.926C213.158 177.007 213.437 176.693 213.764 176.473C214.09 176.253 214.449 176.143 214.84 176.143Z" fill="#E5E5E5"/>
<path d="M215.763 176.257H216.777L218.145 179.817C218.445 180.63 218.631 181.216 218.703 181.577H218.748C218.798 181.384 218.9 181.053 219.056 180.586C219.215 180.115 219.732 178.672 220.605 176.257H221.619L218.936 183.366C218.671 184.069 218.359 184.566 218.002 184.858C217.649 185.155 217.214 185.303 216.698 185.303C216.409 185.303 216.124 185.27 215.843 185.206V184.448C216.052 184.494 216.286 184.517 216.544 184.517C217.193 184.517 217.657 184.152 217.934 183.423L218.281 182.534L215.763 176.257Z" fill="#E5E5E5"/>
<path d="M229.937 182.5V178.461C229.937 177.952 229.821 177.572 229.589 177.322C229.357 177.071 228.995 176.946 228.501 176.946C227.848 176.946 227.369 177.122 227.065 177.476C226.762 177.829 226.61 178.412 226.61 179.224V182.5H225.664V176.257H226.433L226.587 177.111H226.632C226.826 176.803 227.098 176.566 227.447 176.399C227.797 176.228 228.186 176.143 228.615 176.143C229.367 176.143 229.933 176.325 230.313 176.689C230.692 177.05 230.882 177.629 230.882 178.427V182.5H229.937Z" fill="#E5E5E5"/>
<path d="M236.67 182.5L236.482 181.611H236.436C236.125 182.003 235.814 182.268 235.502 182.409C235.195 182.546 234.809 182.614 234.346 182.614C233.727 182.614 233.241 182.454 232.887 182.135C232.538 181.816 232.363 181.363 232.363 180.774C232.363 179.513 233.372 178.852 235.388 178.792L236.448 178.757V178.37C236.448 177.88 236.341 177.519 236.129 177.288C235.92 177.052 235.584 176.934 235.12 176.934C234.6 176.934 234.012 177.094 233.354 177.413L233.064 176.689C233.372 176.522 233.708 176.391 234.072 176.296C234.441 176.201 234.809 176.154 235.177 176.154C235.922 176.154 236.472 176.319 236.829 176.65C237.19 176.98 237.371 177.51 237.371 178.239V182.5H236.67ZM234.534 181.834C235.122 181.834 235.584 181.672 235.918 181.349C236.256 181.027 236.425 180.575 236.425 179.994V179.43L235.479 179.469C234.727 179.496 234.184 179.614 233.85 179.823C233.52 180.028 233.354 180.349 233.354 180.785C233.354 181.127 233.457 181.387 233.662 181.566C233.871 181.744 234.162 181.834 234.534 181.834Z" fill="#E5E5E5"/>
<path d="M247.283 182.5V178.438C247.283 177.941 247.176 177.569 246.964 177.322C246.751 177.071 246.421 176.946 245.973 176.946C245.384 176.946 244.949 177.115 244.668 177.453C244.387 177.791 244.246 178.311 244.246 179.014V182.5H243.301V178.438C243.301 177.941 243.194 177.569 242.982 177.322C242.769 177.071 242.437 176.946 241.985 176.946C241.392 176.946 240.958 177.124 240.68 177.481C240.407 177.835 240.27 178.416 240.27 179.224V182.5H239.325V176.257H240.094L240.247 177.111H240.293C240.471 176.807 240.722 176.57 241.045 176.399C241.372 176.228 241.736 176.143 242.139 176.143C243.115 176.143 243.753 176.496 244.053 177.202H244.098C244.284 176.876 244.554 176.617 244.907 176.427C245.26 176.238 245.663 176.143 246.115 176.143C246.821 176.143 247.349 176.325 247.699 176.689C248.052 177.05 248.228 177.629 248.228 178.427V182.5H247.283Z" fill="#E5E5E5"/>
<path d="M252.82 182.614C251.897 182.614 251.168 182.333 250.632 181.771C250.101 181.209 249.835 180.428 249.835 179.43C249.835 178.423 250.082 177.624 250.575 177.031C251.073 176.439 251.739 176.143 252.575 176.143C253.357 176.143 253.976 176.401 254.432 176.917C254.888 177.43 255.116 178.108 255.116 178.951V179.549H250.815C250.834 180.282 251.018 180.839 251.367 181.218C251.72 181.598 252.216 181.788 252.854 181.788C253.526 181.788 254.191 181.647 254.848 181.366V182.21C254.514 182.354 254.197 182.456 253.896 182.517C253.6 182.582 253.241 182.614 252.82 182.614ZM252.563 176.934C252.062 176.934 251.662 177.098 251.361 177.424C251.065 177.751 250.891 178.203 250.837 178.78H254.102C254.102 178.184 253.969 177.728 253.703 177.413C253.437 177.094 253.057 176.934 252.563 176.934Z" fill="#E5E5E5"/>
<path d="M256.323 180.261L260.784 178.404L256.323 176.279V175.431L261.798 178.159V178.717L256.323 181.121V180.261Z" fill="#E5E5E5"/>
<path d="M86.6667 92.8334C86.6667 91.7288 87.5621 90.8334 88.6667 90.8334H90V199.167H88.6667C87.5621 199.167 86.6667 198.271 86.6667 197.167V92.8334Z" fill="#7289DA"/>
<circle cx="38.3333" cy="44.1667" r="0.833333" fill="black"/>
<circle cx="59.1667" cy="44.1667" r="0.833333" fill="black"/>
<path d="M36.6667 52.192C38.3908 53.3479 38.5071 52.9732 39.9597 53.5814C41.6252 54.2788 44.2074 54.6797 45.9954 54.8715C47.6633 55.0505 49.357 54.8455 51.0301 54.9299C52.1487 54.9863 53.1873 55.0672 54.3056 54.9007C55.0298 54.7929 55.75 54.6751 56.4352 54.3987C57.16 54.1062 58.019 53.7946 58.6516 53.3479C59.2645 52.9151 60.0558 52.8108 60.6713 52.3555C60.9225 52.1696 61.5435 51.9152 61.6667 51.6666" stroke="black" stroke-width="0.8" stroke-linecap="round" stroke-linejoin="round"/>
</svg>
