<svg id="Layer_1" data-name="Layer 1" xmlns="http://www.w3.org/2000/svg" viewBox="0 0 240 240"><defs><style>.cls-1,.cls-2{fill:#c77ae6;}.cls-1{opacity:0.5;}</style></defs><title>ditto-bot-monogram-02</title><circle class="cls-1" cx="120" cy="120" r="119.5"/><path class="cls-2" d="M133.161,67.40186a119.844,119.844,0,0,0-12.54663-2.27039,116.79682,116.79682,0,0,0-40.76633,2.20469.44739.44739,0,0,1-.2876-.84469c5.53276-2.31459,16.49209-5.99726,32.44665-7.259a1.57721,1.57721,0,0,0,1.26147-2.30779,1.19129,1.19129,0,0,0-.80317-.68117c-3.15342-.69371-20.6161-3.87286-41.92945,5.2471a1.45071,1.45071,0,0,0-.51655.37024C67.39256,64.8211,41.46627,94.8083,30.99179,136.71272a4.895,4.895,0,0,0,.23388,3.06272c2.20059,5.30746,11.10079,22.49049,36.30491,29.6614a1.52688,1.52688,0,0,0,1.33113-.24241c1.49256-1.11389,5.5407-4.14747,9.49654-7.22349a1.5742,1.5742,0,0,0-.14573-2.58368,51.976,51.976,0,0,1-13.41724-11.59414,1.60236,1.60236,0,0,1,2.26594-2.24618c2.02042,1.66157,4.00218,3.12634,5.91767,4.4112A94.48017,94.48017,0,0,0,91.7816,160.81122a97.45229,97.45229,0,0,0,17.75923,5.96089l.87509.208a97.45242,97.45242,0,0,0,18.54179,2.66915,94.48068,94.48068,0,0,0,21.6753-1.23c2.28878-.28535,4.71771-.70154,7.26973-1.27609a1.60237,1.60237,0,0,1,1.01265,3.02562,51.9763,51.9763,0,0,1-17.19952,4.31546,1.5742,1.5742,0,0,0-1.29288,2.24167c2.14829,4.52718,4.39811,9.058,5.22968,10.72443a1.5269,1.5269,0,0,0,1.07962.81553c25.73471,4.939,41.41566-6.40016,45.76936-10.14944a4.89447,4.89447,0,0,0,1.58712-2.6298c9.50473-42.135-.15241-80.58161-1.166-84.40732a1.45063,1.45063,0,0,0-.29466-.5631c-14.92874-17.736-31.95383-22.75579-35.08206-23.55546a1.19133,1.19133,0,0,0-1.02379.24684,1.57721,1.57721,0,0,0,.08792,2.62859c13.67976,8.30686,21.80923,16.52761,25.7084,21.0845a.44739.44739,0,0,1-.637.62489A116.79657,116.79657,0,0,0,146.269,71.23048a119.84259,119.84259,0,0,0-12.226-3.61895Z"/><circle cx="90.37991" cy="96.09086" r="4.70809"/><circle cx="156.93937" cy="114.27701" r="4.70809"/><path d="M96.91674,123.46169a44.09166,44.09166,0,0,1-6.76068-4.36247,104.8487,104.8487,0,0,1-10.004-9.25026c-1.005-1.30189-1.69017-.98213-1.96426-.66237s-.137,2.1013.59385,3.22046a43.43731,43.43731,0,0,0,11.854,10.96328c6.92057,4.36247,12.31084,7.10329,23.06856,9.867a149.76418,149.76418,0,0,0,27.95635,4.24827c7.01193.41112,12.58493.31976,15.37143-.137a12.02563,12.02563,0,0,0,5.52731-2.05562,3.92426,3.92426,0,0,0,1.07349-1.69017c.137-.47964.18272-1.142-.3426-1.21053s-3.31182,2.05562-6.92057,2.16982-5.9156,1.07348-16.87888.02284a89.87511,89.87511,0,0,1-13.56249-1.64279,111.73329,111.73329,0,0,1-18.67816-4.74869A90.91238,90.91238,0,0,1,96.91674,123.46169Z"/></svg>